<svg version="1.1" id="Layer_1" xmlns="http://www.w3.org/2000/svg" xmlns:xlink="http://www.w3.org/1999/xlink" x="0px" y="0px"
	 width="100%" viewBox="0 0 512 512" enable-background="new 0 0 512 512" xml:space="preserve">
<path fill="#FEFEFE" opacity="1.000000" stroke="none" 
	d="
M9.000000,513.000000 
	C6.334159,513.000000 3.668318,513.000000 1.001857,513.000000 
	C1.001238,342.386993 1.001238,171.773972 1.001238,1.080477 
	C171.560150,1.080477 342.120331,1.080477 512.840271,1.080477 
	C512.840271,171.666534 512.840271,342.333252 512.840271,513.000000 
	C510.645447,513.000000 508.312805,513.000000 505.473816,512.778198 
	C504.967438,512.556458 505.041260,512.117981 505.383179,512.009521 
	C509.807098,509.824432 510.897766,506.271088 509.780823,502.232178 
	C508.653107,498.154449 505.397705,496.789307 501.282410,496.803253 
	C482.284943,496.867584 463.287140,496.831146 444.289459,496.830811 
	C442.539917,496.830780 440.790375,496.830780 438.841217,496.830780 
	C438.841217,494.286926 438.841217,492.460449 438.841217,490.633972 
	C438.841217,421.142487 438.900879,351.650818 438.729889,282.159760 
	C438.715973,276.497833 439.068115,271.775574 444.789490,269.031097 
	C445.931854,268.483124 446.799164,267.303528 447.707092,266.334442 
	C454.528870,259.053040 457.617432,250.375000 457.533997,240.437897 
	C457.446320,229.994812 457.514374,219.550415 457.514374,209.147491 
	C462.559418,208.434906 467.083954,207.417496 467.561523,202.005692 
	C467.778168,199.550598 466.518860,196.859192 465.556519,194.422134 
	C452.450562,161.231903 439.281250,128.066696 426.122345,94.897400 
	C423.220276,87.582138 422.150360,86.838287 414.322144,86.834953 
	C388.325317,86.823883 362.328522,86.830780 336.331696,86.830772 
	C334.571533,86.830772 332.811401,86.830765 331.004791,86.830765 
	C330.930206,85.163292 330.847473,84.169609 330.847015,83.175896 
	C330.839020,66.177971 330.854858,49.180035 330.835663,32.182137 
	C330.825500,23.187672 328.521912,20.830435 319.809143,20.829449 
	C277.480988,20.824661 235.152832,20.819298 192.824677,20.834484 
	C184.986710,20.837296 182.833771,23.045237 182.829834,30.937920 
	C182.821457,47.769192 182.827271,64.600471 182.827271,81.431747 
	C182.827271,83.173515 182.827271,84.915283 182.827271,86.830902 
	C154.020615,86.830902 126.030075,86.903419 98.040581,86.766212 
	C92.802643,86.740540 89.775993,88.763412 87.883888,93.651466 
	C80.753708,112.071671 73.378235,130.396881 66.105629,148.762024 
	C59.748867,164.814423 53.370533,180.858475 47.076061,196.935303 
	C44.504414,203.503571 46.424210,207.043289 53.249863,208.729645 
	C54.130508,208.947205 55.042782,209.036758 56.103275,209.212616 
	C56.103275,220.801865 55.870708,231.965393 56.167114,243.114883 
	C56.478466,254.826447 61.621086,264.283234 71.267883,270.933807 
	C74.124641,272.903290 74.892387,274.965698 74.888702,278.214722 
	C74.808144,349.205963 74.827271,420.197296 74.827271,491.188629 
	C74.827271,492.954102 74.827271,494.719604 74.827271,496.830780 
	C72.386971,496.830780 70.580376,496.830719 68.773788,496.830811 
	C49.942760,496.831635 31.111713,496.846375 12.280714,496.822784 
	C8.016847,496.817444 4.631931,498.122986 3.754670,502.742706 
	C2.910330,507.189056 4.311236,510.625641 8.965829,512.373169 
	C8.985136,512.581604 9.000000,513.000000 9.000000,513.000000 
z"/>
<path fill="#BFBFBF" opacity="1.000000" stroke="none" 
	d="
M9.462639,513.000000 
	C9.000000,513.000000 8.985136,512.581604 9.431902,512.293152 
	C173.270233,512.005432 336.661774,512.005798 500.053345,512.011475 
	C501.715973,512.011536 503.378632,512.080994 505.041260,512.117981 
	C505.041260,512.117981 504.967438,512.556458 504.983704,512.778198 
	C339.975098,513.000000 174.950180,513.000000 9.462639,513.000000 
z"/>
<path fill="#030302" opacity="1.000000" stroke="none" 
	d="
M505.383179,512.009521 
	C503.378632,512.080994 501.715973,512.011536 500.053345,512.011475 
	C336.661774,512.005798 173.270233,512.005432 9.412596,512.084717 
	C4.311236,510.625641 2.910330,507.189056 3.754670,502.742706 
	C4.631931,498.122986 8.016847,496.817444 12.280714,496.822784 
	C31.111713,496.846375 49.942760,496.831635 68.773788,496.830811 
	C70.580376,496.830719 72.386971,496.830780 74.827271,496.830780 
	C74.827271,494.719604 74.827271,492.954102 74.827271,491.188629 
	C74.827271,420.197296 74.808144,349.205963 74.888702,278.214722 
	C74.892387,274.965698 74.124641,272.903290 71.267883,270.933807 
	C61.621086,264.283234 56.478466,254.826447 56.167114,243.114883 
	C55.870708,231.965393 56.103275,220.801865 56.103275,209.212616 
	C55.042782,209.036758 54.130508,208.947205 53.249863,208.729645 
	C46.424210,207.043289 44.504414,203.503571 47.076061,196.935303 
	C53.370533,180.858475 59.748867,164.814423 66.105629,148.762024 
	C73.378235,130.396881 80.753708,112.071671 87.883888,93.651466 
	C89.775993,88.763412 92.802643,86.740540 98.040581,86.766212 
	C126.030075,86.903419 154.020615,86.830902 182.827271,86.830902 
	C182.827271,84.915283 182.827271,83.173515 182.827271,81.431747 
	C182.827271,64.600471 182.821457,47.769192 182.829834,30.937920 
	C182.833771,23.045237 184.986710,20.837296 192.824677,20.834484 
	C235.152832,20.819298 277.480988,20.824661 319.809143,20.829449 
	C328.521912,20.830435 330.825500,23.187672 330.835663,32.182137 
	C330.854858,49.180035 330.839020,66.177971 330.847015,83.175896 
	C330.847473,84.169609 330.930206,85.163292 331.004791,86.830765 
	C332.811401,86.830765 334.571533,86.830772 336.331696,86.830772 
	C362.328522,86.830780 388.325317,86.823883 414.322144,86.834953 
	C422.150360,86.838287 423.220276,87.582138 426.122345,94.897400 
	C439.281250,128.066696 452.450562,161.231903 465.556519,194.422134 
	C466.518860,196.859192 467.778168,199.550598 467.561523,202.005692 
	C467.083954,207.417496 462.559418,208.434906 457.514374,209.147491 
	C457.514374,219.550415 457.446320,229.994812 457.533997,240.437897 
	C457.617432,250.375000 454.528870,259.053040 447.707092,266.334442 
	C446.799164,267.303528 445.931854,268.483124 444.789490,269.031097 
	C439.068115,271.775574 438.715973,276.497833 438.729889,282.159760 
	C438.900879,351.650818 438.841217,421.142487 438.841217,490.633972 
	C438.841217,492.460449 438.841217,494.286926 438.841217,496.830780 
	C440.790375,496.830780 442.539917,496.830780 444.289459,496.830811 
	C463.287140,496.831146 482.284943,496.867584 501.282410,496.803253 
	C505.397705,496.789307 508.653107,498.154449 509.780823,502.232178 
	C510.897766,506.271088 509.807098,509.824432 505.383179,512.009521 
M254.003098,45.459423 
	C254.003098,42.551201 254.003098,39.642979 254.003098,36.773029 
	C247.308334,36.773029 241.253662,36.773029 235.367889,36.773029 
	C235.367889,45.556057 235.367889,54.031879 235.367889,61.864620 
	C238.517731,59.909641 241.669785,57.953289 245.438812,56.333771 
	C248.176895,58.288399 250.914993,60.243027 253.860657,62.345829 
	C253.860657,56.934978 253.860657,51.671883 254.003098,45.459423 
M403.622925,272.426727 
	C400.529999,269.983307 397.437103,267.539886 394.284393,265.049225 
	C381.709442,278.146698 366.909485,280.929565 349.733917,273.116699 
	C346.189545,270.486816 342.645172,267.856964 338.925812,265.097260 
	C326.063019,278.524750 310.957672,281.058136 293.537872,272.546692 
	C290.375427,270.032410 287.212982,267.518097 284.029968,264.987457 
	C271.353241,278.205719 256.704681,280.867706 239.724380,273.110809 
	C236.184219,270.462677 232.644043,267.814545 228.966721,265.063812 
	C216.878296,277.914490 202.400360,280.642303 185.444824,273.739655 
	C181.604950,270.922913 177.765091,268.106171 173.886566,265.261047 
	C157.509644,282.304962 134.573380,281.271606 119.099998,265.035797 
	C107.893250,274.431488 107.893250,274.431488 90.911133,278.076843 
	C90.911133,350.901337 90.911133,423.736816 90.911133,496.639099 
	C94.293411,496.639099 97.265205,496.639099 101.126785,496.816803 
	C109.731880,496.816803 118.336983,496.816803 127.400803,496.816803 
	C127.400803,494.401031 127.400803,492.599609 127.400803,490.798187 
	C127.400810,460.342682 127.355621,429.886993 127.454063,399.431824 
	C127.467400,395.303741 127.749046,391.073486 128.675156,387.068298 
	C134.221695,363.080902 149.051605,347.383514 173.005554,342.330353 
	C198.017288,337.054108 218.386902,345.903564 233.234558,367.719025 
	C233.810654,367.869598 234.386749,368.020142 234.970642,368.029694 
	C234.970642,368.029694 234.829529,368.034882 234.350479,368.701385 
	C240.526077,378.791992 242.821945,389.883942 242.822861,401.565308 
	C242.825226,431.537018 242.823700,461.508759 242.823700,491.480469 
	C242.823700,493.223450 242.823669,494.966400 242.823669,496.606476 
	C246.599899,496.606476 249.579987,496.606476 253.536621,496.789581 
	C309.900513,496.789581 366.264435,496.789581 422.994354,496.789581 
	C422.994354,494.232788 422.994385,492.262299 422.994385,490.291779 
	C422.994385,436.693451 423.005005,383.095093 422.987335,329.496765 
	C422.982574,315.018463 422.892120,300.540192 423.003113,285.162262 
	C423.003113,282.722931 423.003113,280.283600 423.003113,278.767914 
	C416.210907,276.695312 410.111511,274.834137 403.622925,272.426727 
M110.985130,218.086273 
	C110.985130,215.153763 110.985130,212.221268 110.985130,209.320694 
	C97.660423,209.320694 84.809158,209.320694 71.914803,209.320694 
	C71.914803,220.756439 71.787651,231.876297 71.958122,242.991592 
	C72.077934,250.803604 75.672249,256.561371 83.800087,260.060699 
	C98.020775,264.370178 110.548950,256.788330 110.937920,243.404144 
	C111.174126,235.276596 110.885468,227.133789 110.985130,218.086273 
M276.139984,218.090668 
	C276.139984,215.158157 276.139984,212.225647 276.139984,209.357697 
	C262.798981,209.357697 249.939606,209.357697 237.004150,209.357697 
	C237.004150,220.522659 236.866898,231.335129 237.049835,242.142181 
	C237.183716,250.051346 240.345856,256.276398 248.696594,259.870087 
	C249.484161,260.118500 250.260742,260.411560 251.060959,260.608612 
	C264.988983,264.038422 276.101318,255.517212 276.133453,241.316147 
	C276.150269,233.876755 276.010040,226.437012 276.139984,218.090668 
M166.141052,218.093155 
	C166.141052,215.166168 166.141052,212.239182 166.141052,209.304901 
	C152.851578,209.304901 140.019028,209.304901 127.089920,209.304901 
	C127.089920,220.701965 126.858192,231.803131 127.171165,242.888916 
	C127.380714,250.311020 130.394226,256.357819 138.449860,259.744751 
	C139.394104,260.063477 140.320160,260.458099 141.285355,260.689453 
	C153.793320,263.687531 165.565720,256.123871 166.033859,244.419434 
	C166.372147,235.961151 165.997910,227.474380 166.141052,218.093155 
M193.473831,259.761719 
	C194.263260,260.017487 195.042313,260.312714 195.843628,260.523193 
	C208.707825,263.902130 220.681412,256.155975 221.075302,243.901184 
	C221.341751,235.610886 221.007187,227.301270 221.141052,218.093155 
	C221.141052,215.165207 221.141052,212.237244 221.141052,209.313171 
	C207.843552,209.313171 195.006500,209.313171 182.056366,209.313171 
	C182.056366,220.726730 181.808121,231.836975 182.143555,242.929550 
	C182.367508,250.336197 185.394531,256.400146 193.473831,259.761719 
M441.463348,218.267181 
	C441.463348,215.309219 441.463348,212.351273 441.463348,209.307068 
	C428.183167,209.307068 415.315002,209.307068 402.197845,209.307068 
	C402.197845,220.903961 401.899384,232.204010 402.305054,243.478714 
	C402.566010,250.732391 405.978149,256.517609 413.659485,259.941315 
	C428.259949,264.457092 440.673981,257.195251 441.301910,243.414993 
	C441.671936,235.294861 441.237640,227.138062 441.463348,218.267181 
M331.045258,217.786682 
	C331.045258,214.999054 331.045258,212.211441 331.045258,209.248749 
	C317.963470,209.248749 305.258759,209.248749 292.403625,209.248749 
	C292.403625,220.926697 292.114960,232.365631 292.510010,243.780884 
	C292.753815,250.826355 295.943115,256.512634 303.579071,259.711731 
	C318.019165,264.319611 330.625031,257.377441 331.296814,244.033218 
	C331.721741,235.592911 331.218536,227.105911 331.045258,217.786682 
M386.463226,218.270508 
	C386.463226,215.316574 386.463226,212.362640 386.463226,209.275406 
	C373.210297,209.275406 360.357697,209.275406 347.212891,209.275406 
	C347.212891,220.813080 346.873566,232.089508 347.335846,243.332993 
	C347.628998,250.462631 350.711914,256.446045 358.573303,259.709259 
	C373.076569,264.339233 385.542999,257.428406 386.264801,243.948456 
	C386.708710,235.658386 386.229370,227.318893 386.463226,218.270508 
M216.035034,371.962311 
	C216.035034,371.962311 216.141098,371.949829 216.320709,371.252136 
	C204.748611,358.024078 186.871002,353.431946 170.522995,359.488312 
	C154.008926,365.606171 143.175415,381.053040 143.164093,398.597412 
	C143.144104,429.567566 143.158463,460.537720 143.158463,491.507874 
	C143.158463,493.128052 143.158478,494.748230 143.158478,496.625305 
	C146.755371,496.625305 149.866974,496.625305 153.902985,496.798706 
	C178.128525,496.798706 202.354080,496.798706 226.758453,496.798706 
	C226.758453,463.559998 226.944962,431.100464 226.643051,398.645508 
	C226.554245,389.098145 224.347076,379.841888 216.882950,372.202545 
	C216.601501,372.086914 216.320053,371.971252 216.035034,371.962311 
M209.574081,152.791626 
	C244.643524,152.791626 279.712952,152.791626 314.829803,152.791626 
	C314.829803,116.877838 314.829803,81.726624 314.973022,45.733063 
	C314.973022,42.777649 314.973022,39.822235 314.973022,36.675472 
	C299.835632,36.675472 285.079437,36.675472 269.813995,36.675472 
	C269.813995,38.485310 269.813995,40.103970 269.813995,41.722633 
	C269.813995,55.539345 269.826965,69.356071 269.808807,83.172760 
	C269.799011,90.623093 267.830658,92.872742 259.966644,93.603378 
	C257.690765,91.763290 255.414856,89.923210 252.895828,87.427673 
	C250.155121,84.041092 247.414413,80.654503 244.936462,77.592590 
	C239.398163,83.232544 234.160721,88.566124 228.152466,93.839027 
	C221.278564,93.188644 219.033356,90.844864 218.998184,84.221092 
	C218.931534,71.671677 218.882217,59.122173 218.968140,45.730675 
	C218.968140,42.777870 218.968140,39.825062 218.968140,36.690453 
	C212.159012,36.690453 205.731323,36.690453 199.238495,36.690453 
	C199.238495,75.516411 199.238495,114.128120 199.238495,152.610947 
	C202.638870,152.610947 205.620728,152.610947 209.574081,152.791626 
M192.145645,168.605057 
	C184.600983,167.676254 182.863586,165.689194 182.831818,158.015411 
	C182.768524,142.721130 182.693268,127.426888 182.811996,111.201714 
	C182.811996,108.422157 182.811996,105.642593 182.811996,102.936745 
	C181.767181,102.725182 181.283890,102.542038 180.800415,102.541641 
	C155.309326,102.520691 129.817749,102.456367 104.328323,102.658974 
	C102.849670,102.670731 100.657326,104.561859 100.032715,106.085045 
	C94.176468,120.366142 88.583130,134.755157 82.927322,149.118317 
	C77.223930,163.602341 71.535934,178.092422 65.702538,192.932602 
	C70.653152,192.932602 75.093483,192.932602 80.515671,193.113342 
	C202.729172,193.113342 324.942688,193.113342 447.982452,193.113342 
	C436.914825,165.215179 426.202209,138.211792 415.163361,110.462563 
	C411.103455,100.651321 413.941071,102.609993 403.759003,102.552498 
	C381.284454,102.425575 358.808685,102.513054 336.333435,102.513062 
	C334.589813,102.513062 332.846191,102.513062 330.840302,102.513062 
	C330.840302,120.641533 330.841919,138.100464 330.839691,155.559387 
	C330.838287,166.422363 328.792786,168.512634 318.171783,168.512802 
	C278.215790,168.513412 238.259766,168.508713 198.303757,168.527039 
	C196.487427,168.527878 194.671188,168.733139 192.145645,168.605057 
z"/>
<path fill="#10F54D" opacity="1.000000" stroke="none" 
	d="
M422.841034,286.061890 
	C422.892120,300.540192 422.982574,315.018463 422.987335,329.496765 
	C423.005005,383.095093 422.994385,436.693451 422.994385,490.291779 
	C422.994385,492.262299 422.994354,494.232788 422.994354,496.789581 
	C366.264435,496.789581 309.900513,496.789581 253.037476,496.253662 
	C252.557022,483.722351 252.649277,471.726562 252.577560,459.731720 
	C252.464050,440.745819 252.848419,421.728821 251.859421,402.785706 
	C251.148804,389.174408 245.597000,377.123199 234.829529,368.034882 
	C234.829529,368.034882 234.970642,368.029694 234.945404,367.777039 
	C234.331741,367.353088 233.743317,367.181763 233.154892,367.010437 
	C218.386902,345.903564 198.017288,337.054108 173.005554,342.330353 
	C149.051605,347.383514 134.221695,363.080902 128.675156,387.068298 
	C127.749046,391.073486 127.467400,395.303741 127.454063,399.431824 
	C127.355621,429.886993 127.400810,460.342682 127.400803,490.798187 
	C127.400803,492.599609 127.400803,494.401031 127.400803,496.816803 
	C118.336983,496.816803 109.731880,496.816803 100.672684,496.286560 
	C100.218575,426.325409 100.218575,356.894501 100.218575,287.570709 
	C115.649139,285.530609 118.351074,284.317444 129.006836,274.821045 
	C129.475937,275.195557 130.007202,275.559479 130.468796,275.996918 
	C146.467407,291.158020 165.801926,291.292816 182.187851,276.404175 
	C182.960144,275.702454 184.123459,275.431091 185.229065,275.268066 
	C200.233292,290.932129 221.245865,291.408356 236.793854,276.794891 
	C237.682022,275.960114 238.943863,275.522919 240.158539,275.215149 
	C243.542572,278.073151 246.552063,281.049896 250.102524,283.081055 
	C261.943329,289.855011 279.775391,289.954773 294.315186,274.778381 
	C310.582886,291.209473 330.839874,291.676422 347.580719,276.186554 
	C348.263947,275.554382 349.222290,275.219635 350.237091,275.034729 
	C365.764313,291.708496 387.708984,291.445190 404.321350,274.788574 
	C409.643433,280.370117 415.550385,284.342682 422.841034,286.061890 
M278.795593,440.014557 
	C278.869690,451.437469 279.980133,452.989319 288.830170,454.865204 
	C289.530945,461.459137 291.630371,463.496857 298.430695,463.553436 
	C310.720428,463.655701 323.011627,463.586182 335.302216,463.586426 
	C352.243286,463.586792 369.184692,463.646881 386.125275,463.555328 
	C393.223663,463.516968 395.914642,460.787506 396.014832,454.048370 
	C396.088867,449.069580 396.125610,444.090210 397.046387,438.921112 
	C400.210785,438.921112 403.375183,438.921112 406.539551,438.921112 
	C406.551971,438.274231 406.564392,437.627319 406.576813,436.980438 
	C403.111206,436.745514 399.645630,436.510620 396.041016,435.305511 
	C396.033081,412.272980 396.041687,389.240417 396.007660,366.207916 
	C395.996735,358.819153 393.631958,356.371124 386.204163,355.207336 
	C385.435852,348.389679 383.061951,346.167725 376.266754,346.162109 
	C347.274292,346.138123 318.281799,346.146667 289.289337,346.155182 
	C281.311584,346.157532 278.847595,348.612091 278.842590,356.543518 
	C278.825836,383.036560 278.820587,409.529572 277.907593,436.146881 
	C271.026947,436.286316 264.146301,436.425751 257.265656,436.565186 
	C257.274597,437.420013 257.283569,438.274872 257.292511,439.129700 
	C264.437408,439.129700 271.582275,439.129700 278.795593,440.014557 
z"/>
<path fill="#FE6E11" opacity="1.000000" stroke="none" 
	d="
M182.622955,112.132637 
	C182.693268,127.426888 182.768524,142.721130 182.831818,158.015411 
	C182.863586,165.689194 184.600983,167.676254 192.503769,169.137207 
	C193.552444,176.272278 195.605972,178.139023 202.559998,178.142822 
	C245.159439,178.166046 287.758881,178.166092 330.358337,178.145294 
	C338.330750,178.141418 340.825409,175.651779 340.839966,167.750824 
	C340.870605,151.110474 340.849823,134.470016 340.850189,117.829613 
	C340.850220,116.068199 340.850189,114.306793 340.850189,112.155991 
	C343.320557,112.155991 345.118805,112.155991 346.917084,112.155991 
	C368.050415,112.155983 389.183777,112.177994 410.316925,112.114952 
	C412.042023,112.109810 413.765381,111.524269 415.489563,111.208405 
	C426.202209,138.211792 436.914825,165.215179 447.982452,193.113342 
	C324.942688,193.113342 202.729172,193.113342 80.145355,192.654083 
	C89.835571,166.740723 99.960274,141.311554 109.873734,115.800316 
	C111.083954,112.685913 112.778053,112.084953 115.783470,112.098976 
	C138.062866,112.202911 160.343033,112.141861 182.622955,112.132637 
z"/>
<path fill="#FD6D0F" opacity="1.000000" stroke="none" 
	d="
M216.963989,372.779907 
	C224.347076,379.841888 226.554245,389.098145 226.643051,398.645508 
	C226.944962,431.100464 226.758453,463.559998 226.758453,496.798706 
	C202.354080,496.798706 178.128525,496.798706 153.429962,496.269196 
	C152.970673,466.793884 152.946548,437.848022 153.009827,408.902344 
	C153.062561,384.779205 171.948669,366.095734 196.062759,367.123535 
	C202.811859,367.411163 209.451340,370.270294 216.141098,371.949829 
	C216.141098,371.949829 216.035034,371.962311 216.042236,372.178436 
	C216.354294,372.523010 216.659149,372.651459 216.963989,372.779907 
M208.217438,422.385071 
	C207.729721,416.157013 205.028854,413.066040 200.160797,413.164764 
	C195.382965,413.261597 192.708405,416.529510 192.423706,422.768707 
	C192.295654,425.575073 192.063431,428.418549 192.358170,431.194244 
	C193.129776,438.460541 194.791580,439.900146 202.151581,441.019073 
	C202.241425,441.673767 202.272873,442.342865 202.430176,442.980927 
	C203.831772,448.665680 206.330673,450.716980 211.320602,450.139252 
	C216.316391,449.560822 217.703720,445.945496 217.974121,441.684845 
	C218.172958,438.551941 218.106781,435.394806 218.016602,432.252563 
	C217.827805,425.674622 215.258438,423.303467 208.217438,422.385071 
z"/>
<path fill="#0FF54D" opacity="1.000000" stroke="none" 
	d="
M218.825684,46.572704 
	C218.882217,59.122173 218.931534,71.671677 218.998184,84.221092 
	C219.033356,90.844864 221.278564,93.188644 228.565079,94.274994 
	C228.914581,98.969284 230.528473,102.200806 234.785370,103.535576 
	C238.765625,104.783607 241.476120,102.535568 243.788605,99.740974 
	C246.964035,95.903549 250.027512,91.973488 253.138962,88.083122 
	C255.414856,89.923210 257.690765,91.763290 260.341125,94.146561 
	C261.642670,95.863235 262.593475,97.018906 263.492340,98.213631 
	C266.073944,101.644974 268.894928,104.958405 273.770294,103.446480 
	C279.019409,101.818649 279.738220,97.424232 279.705933,92.606644 
	C279.615723,79.134575 279.674866,65.661491 279.675018,52.188812 
	C279.675049,50.438057 279.675018,48.687298 279.675018,46.575417 
	C291.915649,46.575417 303.372742,46.575417 314.829803,46.575417 
	C314.829803,81.726624 314.829803,116.877838 314.829803,152.791626 
	C279.712952,152.791626 244.643524,152.791626 209.078552,152.256897 
	C208.583038,116.795242 208.583038,81.868340 208.583038,46.572704 
	C212.531311,46.572704 215.678497,46.572704 218.825684,46.572704 
z"/>
<path fill="#F9FCFA" opacity="1.000000" stroke="none" 
	d="
M185.104675,274.959290 
	C184.123459,275.431091 182.960144,275.702454 182.187851,276.404175 
	C165.801926,291.292816 146.467407,291.158020 130.468796,275.996918 
	C130.007202,275.559479 129.475937,275.195557 129.006836,274.821045 
	C118.351074,284.317444 115.649139,285.530609 100.218575,287.570709 
	C100.218575,356.894501 100.218575,426.325409 100.227791,496.197693 
	C97.265205,496.639099 94.293411,496.639099 90.911133,496.639099 
	C90.911133,423.736816 90.911133,350.901337 90.911133,278.076843 
	C107.893250,274.431488 107.893250,274.431488 119.099998,265.035797 
	C134.573380,281.271606 157.509644,282.304962 173.886566,265.261047 
	C177.765091,268.106171 181.604950,270.922913 185.610168,274.138275 
	C185.597824,274.750580 185.374207,274.891388 185.104675,274.959290 
z"/>
<path fill="#FFFEFD" opacity="1.000000" stroke="none" 
	d="
M415.326477,110.835487 
	C413.765381,111.524269 412.042023,112.109810 410.316925,112.114952 
	C389.183777,112.177994 368.050415,112.155983 346.917084,112.155991 
	C345.118805,112.155991 343.320557,112.155991 340.850189,112.155991 
	C340.850189,114.306793 340.850220,116.068199 340.850189,117.829613 
	C340.849823,134.470016 340.870605,151.110474 340.839966,167.750824 
	C340.825409,175.651779 338.330750,178.141418 330.358337,178.145294 
	C287.758881,178.166092 245.159439,178.166046 202.559998,178.142822 
	C195.605972,178.139023 193.552444,176.272278 192.858398,169.256271 
	C194.671188,168.733139 196.487427,168.527878 198.303757,168.527039 
	C238.259766,168.508713 278.215790,168.513412 318.171783,168.512802 
	C328.792786,168.512634 330.838287,166.422363 330.839691,155.559387 
	C330.841919,138.100464 330.840302,120.641533 330.840302,102.513062 
	C332.846191,102.513062 334.589813,102.513062 336.333435,102.513062 
	C358.808685,102.513054 381.284454,102.425575 403.759003,102.552498 
	C413.941071,102.609993 411.103455,100.651321 415.326477,110.835487 
z"/>
<path fill="#FAF9F8" opacity="1.000000" stroke="none" 
	d="
M216.230896,371.600952 
	C209.451340,370.270294 202.811859,367.411163 196.062759,367.123535 
	C171.948669,366.095734 153.062561,384.779205 153.009827,408.902344 
	C152.946548,437.848022 152.970673,466.793884 152.967758,496.182495 
	C149.866974,496.625305 146.755371,496.625305 143.158478,496.625305 
	C143.158478,494.748230 143.158463,493.128052 143.158463,491.507874 
	C143.158463,460.537720 143.144104,429.567566 143.164093,398.597412 
	C143.175415,381.053040 154.008926,365.606171 170.522995,359.488312 
	C186.871002,353.431946 204.748611,358.024078 216.230896,371.600952 
z"/>
<path fill="#FDFCFC" opacity="1.000000" stroke="none" 
	d="
M182.717468,111.667175 
	C160.343033,112.141861 138.062866,112.202911 115.783470,112.098976 
	C112.778053,112.084953 111.083954,112.685913 109.873734,115.800316 
	C99.960274,141.311554 89.835571,166.740723 79.654427,192.563705 
	C75.093483,192.932602 70.653152,192.932602 65.702538,192.932602 
	C71.535934,178.092422 77.223930,163.602341 82.927322,149.118317 
	C88.583130,134.755157 94.176468,120.366142 100.032715,106.085045 
	C100.657326,104.561859 102.849670,102.670731 104.328323,102.658974 
	C129.817749,102.456367 155.309326,102.520691 180.800415,102.541641 
	C181.283890,102.542038 181.767181,102.725182 182.811996,102.936745 
	C182.811996,105.642593 182.811996,108.422157 182.717468,111.667175 
z"/>
<path fill="#F2FCF5" opacity="1.000000" stroke="none" 
	d="
M218.896912,46.151688 
	C215.678497,46.572704 212.531311,46.572704 208.583038,46.572704 
	C208.583038,81.868340 208.583038,116.795242 208.592804,152.166550 
	C205.620728,152.610947 202.638870,152.610947 199.238495,152.610947 
	C199.238495,114.128120 199.238495,75.516411 199.238495,36.690453 
	C205.731323,36.690453 212.159012,36.690453 218.968140,36.690453 
	C218.968140,39.825062 218.968140,42.777870 218.896912,46.151688 
z"/>
<path fill="#F3FDF6" opacity="1.000000" stroke="none" 
	d="
M234.589996,368.368134 
	C245.597000,377.123199 251.148804,389.174408 251.859421,402.785706 
	C252.848419,421.728821 252.464050,440.745819 252.577560,459.731720 
	C252.649277,471.726562 252.557022,483.722351 252.549194,496.162109 
	C249.579987,496.606476 246.599899,496.606476 242.823669,496.606476 
	C242.823669,494.966400 242.823700,493.223450 242.823700,491.480469 
	C242.823700,461.508759 242.825226,431.537018 242.822861,401.565308 
	C242.821945,389.883942 240.526077,378.791992 234.589996,368.368134 
z"/>
<path fill="#FE6D10" opacity="1.000000" stroke="none" 
	d="
M386.164551,219.001587 
	C386.229370,227.318893 386.708710,235.658386 386.264801,243.948456 
	C385.542999,257.428406 373.076569,264.339233 358.289246,258.996338 
	C358.005157,245.269150 358.005157,232.254898 358.005157,219.001587 
	C367.242035,219.001587 376.703278,219.001587 386.164551,219.001587 
z"/>
<path fill="#FE6D10" opacity="1.000000" stroke="none" 
	d="
M331.131592,218.639847 
	C331.218536,227.105911 331.721741,235.592911 331.296814,244.033218 
	C330.625031,257.377441 318.019165,264.319611 303.295624,258.999329 
	C303.012177,245.271210 303.012177,232.255524 303.012177,218.639847 
	C312.244476,218.639847 321.688019,218.639847 331.131592,218.639847 
z"/>
<path fill="#FE6E12" opacity="1.000000" stroke="none" 
	d="
M441.165039,218.997757 
	C441.237640,227.138062 441.671936,235.294861 441.301910,243.414993 
	C440.673981,257.195251 428.259949,264.457092 413.408569,259.272156 
	C413.157623,245.545975 413.157623,232.488998 413.157623,218.997757 
	C422.284393,218.997757 431.724701,218.997757 441.165039,218.997757 
z"/>
<path fill="#FE6D0F" opacity="1.000000" stroke="none" 
	d="
M220.941452,219.000305 
	C221.007187,227.301270 221.341751,235.610886 221.075302,243.901184 
	C220.681412,256.155975 208.707825,263.902130 195.843628,260.523193 
	C195.042313,260.312714 194.263260,260.017487 193.162476,259.057739 
	C192.851135,245.336243 192.851135,232.318710 192.851135,219.000305 
	C202.042572,219.000305 211.492020,219.000305 220.941452,219.000305 
z"/>
<path fill="#FE6D0F" opacity="1.000000" stroke="none" 
	d="
M165.941452,219.000305 
	C165.997910,227.474380 166.372147,235.961151 166.033859,244.419434 
	C165.565720,256.123871 153.793320,263.687531 141.285355,260.689453 
	C140.320160,260.458099 139.394104,260.063477 138.163818,259.026794 
	C137.877792,245.303238 137.877792,232.297623 137.877792,219.000305 
	C147.053925,219.000305 156.497681,219.000305 165.941452,219.000305 
z"/>
<path fill="#FE6D10" opacity="1.000000" stroke="none" 
	d="
M275.940704,218.997421 
	C276.010040,226.437012 276.150269,233.876755 276.133453,241.316147 
	C276.101318,255.517212 264.988983,264.038422 251.060959,260.608612 
	C250.260742,260.411560 249.484161,260.118500 248.377136,259.194458 
	C248.057693,245.486282 248.057693,232.453705 248.057693,218.997421 
	C257.073547,218.997421 266.507141,218.997421 275.940704,218.997421 
z"/>
<path fill="#FE6D0F" opacity="1.000000" stroke="none" 
	d="
M110.832596,218.997833 
	C110.885468,227.133789 111.174126,235.276596 110.937920,243.404144 
	C110.548950,256.788330 98.020775,264.370178 83.350052,259.474243 
	C82.900024,245.711472 82.900024,232.535187 82.900024,218.997833 
	C91.975037,218.997833 101.403816,218.997833 110.832596,218.997833 
z"/>
<path fill="#F0F9F2" opacity="1.000000" stroke="none" 
	d="
M314.901428,46.154240 
	C303.372742,46.575417 291.915649,46.575417 279.675018,46.575417 
	C279.675018,48.687298 279.675049,50.438057 279.675018,52.188812 
	C279.674866,65.661491 279.615723,79.134575 279.705933,92.606644 
	C279.738220,97.424232 279.019409,101.818649 273.770294,103.446480 
	C268.894928,104.958405 266.073944,101.644974 263.492340,98.213631 
	C262.593475,97.018906 261.642670,95.863235 260.581665,94.349815 
	C267.830658,92.872742 269.799011,90.623093 269.808807,83.172760 
	C269.826965,69.356071 269.813995,55.539345 269.813995,41.722633 
	C269.813995,40.103970 269.813995,38.485310 269.813995,36.675472 
	C285.079437,36.675472 299.835632,36.675472 314.973022,36.675472 
	C314.973022,39.822235 314.973022,42.777649 314.901428,46.154240 
z"/>
<path fill="#FBFBFB" opacity="1.000000" stroke="none" 
	d="
M441.314209,218.632477 
	C431.724701,218.997757 422.284393,218.997757 413.157623,218.997757 
	C413.157623,232.488998 413.157623,245.545975 413.104248,259.066528 
	C405.978149,256.517609 402.566010,250.732391 402.305054,243.478714 
	C401.899384,232.204010 402.197845,220.903961 402.197845,209.307068 
	C415.315002,209.307068 428.183167,209.307068 441.463348,209.307068 
	C441.463348,212.351273 441.463348,215.309219 441.314209,218.632477 
z"/>
<path fill="#FBFBFB" opacity="1.000000" stroke="none" 
	d="
M386.313904,218.636047 
	C376.703278,219.001587 367.242035,219.001587 358.005157,219.001587 
	C358.005157,232.254898 358.005157,245.269150 358.039825,258.712952 
	C350.711914,256.446045 347.628998,250.462631 347.335846,243.332993 
	C346.873566,232.089508 347.212891,220.813080 347.212891,209.275406 
	C360.357697,209.275406 373.210297,209.275406 386.463226,209.275406 
	C386.463226,212.362640 386.463226,215.316574 386.313904,218.636047 
z"/>
<path fill="#FEFEFD" opacity="1.000000" stroke="none" 
	d="
M110.908859,218.542053 
	C101.403816,218.997833 91.975037,218.997833 82.900024,218.997833 
	C82.900024,232.535187 82.900024,245.711472 82.974152,259.282776 
	C75.672249,256.561371 72.077934,250.803604 71.958122,242.991592 
	C71.787651,231.876297 71.914803,220.756439 71.914803,209.320694 
	C84.809158,209.320694 97.660423,209.320694 110.985130,209.320694 
	C110.985130,212.221268 110.985130,215.153763 110.908859,218.542053 
z"/>
<path fill="#FEFDFD" opacity="1.000000" stroke="none" 
	d="
M221.041260,218.546722 
	C211.492020,219.000305 202.042572,219.000305 192.851135,219.000305 
	C192.851135,232.318710 192.851135,245.336243 192.891922,258.783569 
	C185.394531,256.400146 182.367508,250.336197 182.143555,242.929550 
	C181.808121,231.836975 182.056366,220.726730 182.056366,209.313171 
	C195.006500,209.313171 207.843552,209.313171 221.141052,209.313171 
	C221.141052,212.237244 221.141052,215.165207 221.041260,218.546722 
z"/>
<path fill="#FEFDFD" opacity="1.000000" stroke="none" 
	d="
M166.041260,218.546722 
	C156.497681,219.000305 147.053925,219.000305 137.877792,219.000305 
	C137.877792,232.297623 137.877792,245.303238 137.907516,258.736633 
	C130.394226,256.357819 127.380714,250.311020 127.171165,242.888916 
	C126.858192,231.803131 127.089920,220.701965 127.089920,209.304901 
	C140.019028,209.304901 152.851578,209.304901 166.141052,209.304901 
	C166.141052,212.239182 166.141052,215.166168 166.041260,218.546722 
z"/>
<path fill="#FEFEFD" opacity="1.000000" stroke="none" 
	d="
M276.040344,218.544037 
	C266.507141,218.997421 257.073547,218.997421 248.057693,218.997421 
	C248.057693,232.453705 248.057693,245.486282 248.086853,258.969604 
	C240.345856,256.276398 237.183716,250.051346 237.049835,242.142181 
	C236.866898,231.335129 237.004150,220.522659 237.004150,209.357697 
	C249.939606,209.357697 262.798981,209.357697 276.139984,209.357697 
	C276.139984,212.225647 276.139984,215.158157 276.040344,218.544037 
z"/>
<path fill="#FBFBFB" opacity="1.000000" stroke="none" 
	d="
M331.088440,218.213257 
	C321.688019,218.639847 312.244476,218.639847 303.012177,218.639847 
	C303.012177,232.255524 303.012177,245.271210 303.046204,258.716553 
	C295.943115,256.512634 292.753815,250.826355 292.510010,243.780884 
	C292.114960,232.365631 292.403625,220.926697 292.403625,209.248749 
	C305.258759,209.248749 317.963470,209.248749 331.045258,209.248749 
	C331.045258,212.211441 331.045258,214.999054 331.088440,218.213257 
z"/>
<path fill="#F9FBF9" opacity="1.000000" stroke="none" 
	d="
M350.052429,274.746338 
	C349.222290,275.219635 348.263947,275.554382 347.580719,276.186554 
	C330.839874,291.676422 310.582886,291.209473 294.314301,274.514893 
	C293.993561,273.746826 293.990326,273.395538 293.987091,273.044220 
	C310.957672,281.058136 326.063019,278.524750 338.925812,265.097260 
	C342.645172,267.856964 346.189545,270.486816 349.907471,273.654083 
	C350.071503,274.376404 350.061981,274.561340 350.052429,274.746338 
z"/>
<path fill="#F9FCFA" opacity="1.000000" stroke="none" 
	d="
M293.762482,272.795471 
	C293.990326,273.395538 293.993561,273.746826 293.997650,274.361633 
	C279.775391,289.954773 261.943329,289.855011 250.102524,283.081055 
	C246.552063,281.049896 243.542572,278.073151 240.177307,274.894653 
	C240.090256,274.046753 240.111160,273.833740 240.132065,273.620728 
	C256.704681,280.867706 271.353241,278.205719 284.029968,264.987457 
	C287.212982,267.518097 290.375427,270.032410 293.762482,272.795471 
z"/>
<path fill="#F9FBF9" opacity="1.000000" stroke="none" 
	d="
M239.928223,273.365784 
	C240.111160,273.833740 240.090256,274.046753 240.050568,274.580200 
	C238.943863,275.522919 237.682022,275.960114 236.793854,276.794891 
	C221.245865,291.408356 200.233292,290.932129 185.229065,275.268066 
	C185.374207,274.891388 185.597824,274.750580 185.876099,274.363007 
	C202.400360,280.642303 216.878296,277.914490 228.966721,265.063812 
	C232.644043,267.814545 236.184219,270.462677 239.928223,273.365784 
z"/>
<path fill="#FAFDFB" opacity="1.000000" stroke="none" 
	d="
M350.237091,275.034698 
	C350.061981,274.561340 350.071503,274.376404 350.107056,273.914917 
	C366.909485,280.929565 381.709442,278.146698 394.284393,265.049225 
	C397.437103,267.539886 400.529999,269.983307 403.810791,272.984406 
	C403.993988,273.921539 403.989319,274.300995 403.984619,274.680450 
	C387.708984,291.445190 365.764313,291.708496 350.237091,275.034698 
z"/>
<path fill="#F9FBF9" opacity="1.000000" stroke="none" 
	d="
M253.017395,87.755402 
	C250.027512,91.973488 246.964035,95.903549 243.788605,99.740974 
	C241.476120,102.535568 238.765625,104.783607 234.785370,103.535576 
	C230.528473,102.200806 228.914581,98.969284 228.950485,94.305328 
	C234.160721,88.566124 239.398163,83.232544 244.936462,77.592590 
	C247.414413,80.654503 250.155121,84.041092 253.017395,87.755402 
z"/>
<path fill="#F4F6F4" opacity="1.000000" stroke="none" 
	d="
M244.821838,55.996933 
	C241.669785,57.953289 238.517731,59.909641 235.367889,61.864620 
	C235.367889,54.031879 235.367889,45.556057 235.367889,36.773029 
	C241.253662,36.773029 247.308334,36.773029 254.003098,36.773029 
	C254.003098,39.642979 254.003098,42.551201 253.493103,45.952362 
	C250.387146,46.445301 247.791183,46.445301 244.821838,46.445301 
	C244.821838,50.063328 244.821838,53.030128 244.821838,55.996933 
z"/>
<path fill="#18F353" opacity="1.000000" stroke="none" 
	d="
M245.130325,56.165352 
	C244.821838,53.030128 244.821838,50.063328 244.821838,46.445301 
	C247.791183,46.445301 250.387146,46.445301 253.421875,46.427044 
	C253.860657,51.671883 253.860657,56.934978 253.860657,62.345829 
	C250.914993,60.243027 248.176895,58.288399 245.130325,56.165352 
z"/>
<path fill="#F0F9F2" opacity="1.000000" stroke="none" 
	d="
M404.321350,274.788574 
	C403.989319,274.300995 403.993988,273.921539 404.005402,273.257507 
	C410.111511,274.834137 416.210907,276.695312 423.003113,278.767914 
	C423.003113,280.283600 423.003113,282.722931 422.922058,285.612061 
	C415.550385,284.342682 409.643433,280.370117 404.321350,274.788574 
z"/>
<path fill="#F3FDF6" opacity="1.000000" stroke="none" 
	d="
M233.194733,367.364746 
	C233.743317,367.181763 234.331741,367.353088 234.941498,367.847534 
	C234.386749,368.020142 233.810654,367.869598 233.194733,367.364746 
z"/>
<path fill="#FAF9F8" opacity="1.000000" stroke="none" 
	d="
M216.923462,372.491211 
	C216.659149,372.651459 216.354294,372.523010 216.044037,372.125061 
	C216.320053,371.971252 216.601501,372.086914 216.923462,372.491211 
z"/>
<path fill="#010201" opacity="1.000000" stroke="none" 
	d="
M278.810944,436.022644 
	C278.820587,409.529572 278.825836,383.036560 278.842590,356.543518 
	C278.847595,348.612091 281.311584,346.157532 289.289337,346.155182 
	C318.281799,346.146667 347.274292,346.138123 376.266754,346.162109 
	C383.061951,346.167725 385.435852,348.389679 386.187317,356.066467 
	C386.107117,383.280243 386.043793,409.634918 385.544983,435.984528 
	C383.540436,435.868256 381.971344,435.757019 380.020081,435.618744 
	C380.020081,432.688721 380.421661,430.161316 379.914642,427.831665 
	C379.330017,425.145508 377.943451,422.633911 376.532990,420.025909 
	C374.666626,419.435913 373.172455,418.866516 371.407104,418.144684 
	C370.957214,417.887115 370.778442,417.782013 370.647949,417.265991 
	C370.532135,401.896729 370.368073,386.938416 370.331879,371.532471 
	C370.459747,368.180969 370.459747,365.277100 370.459747,362.190094 
	C365.425537,362.190094 360.714539,362.190094 355.768768,362.125977 
	C355.533966,362.061890 355.060455,362.174927 354.828064,361.898987 
	C351.788116,358.675995 349.317505,360.656525 346.360352,362.095825 
	C334.606750,362.048187 323.306732,362.059875 311.673370,361.940430 
	C308.452667,359.810364 305.626343,359.584229 302.444458,362.051331 
	C299.728058,362.002838 297.461517,362.002838 294.915039,362.002838 
	C294.915039,373.957489 294.915039,385.498535 294.659912,397.339783 
	C294.049469,407.545044 293.694214,417.450104 293.325562,427.370789 
	C293.312164,427.386414 293.273682,427.405060 292.969177,427.338196 
	C292.482819,427.607452 292.300934,427.943573 292.013672,428.454712 
	C291.739136,428.858154 291.517365,429.009277 290.930023,429.114655 
	C290.521301,429.515900 290.425415,429.885559 290.217957,430.179260 
	C290.106354,430.103302 290.299438,430.292053 289.963989,430.297516 
	C289.452606,430.899475 289.276642,431.495972 289.053467,432.050751 
	C289.006226,432.009033 289.116638,432.069733 288.790680,432.184265 
	C288.421844,432.934235 288.378967,433.569611 288.321289,434.216248 
	C288.306549,434.227478 288.316711,434.262848 287.932495,434.359497 
	C284.635803,434.978271 281.723389,435.500458 278.810944,436.022644 
z"/>
<path fill="#110B09" opacity="1.000000" stroke="none" 
	d="
M376.905151,420.046509 
	C377.943451,422.633911 379.330017,425.145508 379.914642,427.831665 
	C380.421661,430.161316 380.020081,432.688721 380.020081,435.618744 
	C381.971344,435.757019 383.540436,435.868256 385.865662,436.236328 
	C389.807861,436.420715 392.993958,436.348206 396.180023,436.275696 
	C399.645630,436.510620 403.111206,436.745514 406.576813,436.980438 
	C406.564392,437.627319 406.551971,438.274231 406.539551,438.921112 
	C403.375183,438.921112 400.210785,438.921112 396.156281,438.886780 
	C392.335022,438.852448 389.403839,438.852448 386.156738,438.852448 
	C386.156738,441.568115 386.232178,443.707458 386.140991,445.839691 
	C385.949677,450.313171 383.427948,452.854706 379.166382,453.653351 
	C377.553345,453.955688 375.854553,453.841766 374.194611,453.846466 
	C345.747009,453.926880 317.299347,453.996124 288.851715,454.067841 
	C279.980133,452.989319 278.869690,451.437469 279.215942,439.509521 
	C282.305389,439.104675 284.974457,439.204865 287.740051,439.570587 
	C288.201477,440.234772 288.566376,440.633423 288.967072,441.024811 
	C289.002869,441.017548 288.946930,441.064575 288.921814,441.390991 
	C289.359131,442.103210 289.821564,442.489044 290.615784,443.097534 
	C294.279907,444.640564 302.024902,442.200317 304.665771,439.087097 
	C310.321716,439.089752 315.525848,439.145660 320.812683,439.551208 
	C322.032013,444.224518 324.507690,447.129150 329.287933,446.774658 
	C334.171906,446.412445 336.486664,443.185638 337.257690,438.606720 
	C337.393433,437.800568 337.679932,437.019806 337.922546,436.185242 
	C337.948273,436.143188 337.852051,436.121613 338.011963,436.551300 
	C343.475067,436.671570 348.778259,436.362122 354.040039,436.055176 
	C353.998596,436.057678 354.076172,436.087524 354.279785,436.173889 
	C354.483368,436.260254 354.909882,436.143127 354.944824,436.109161 
	C354.979736,436.075195 354.882446,436.080933 355.029602,436.516235 
	C362.787903,436.723022 370.399078,436.494476 378.271210,435.939240 
	C378.002472,430.772766 377.472748,425.933014 376.978943,420.829895 
	C376.978271,420.393219 376.941711,420.219879 376.905151,420.046509 
z"/>
<path fill="#F5FEF7" opacity="1.000000" stroke="none" 
	d="
M288.840942,454.466522 
	C317.299347,453.996124 345.747009,453.926880 374.194611,453.846466 
	C375.854553,453.841766 377.553345,453.955688 379.166382,453.653351 
	C383.427948,452.854706 385.949677,450.313171 386.140991,445.839691 
	C386.232178,443.707458 386.156738,441.568115 386.156738,438.852448 
	C389.403839,438.852448 392.335022,438.852448 395.722595,438.981781 
	C396.125610,444.090210 396.088867,449.069580 396.014832,454.048370 
	C395.914642,460.787506 393.223663,463.516968 386.125275,463.555328 
	C369.184692,463.646881 352.243286,463.586792 335.302216,463.586426 
	C323.011627,463.586182 310.720428,463.655701 298.430695,463.553436 
	C291.630371,463.496857 289.530945,461.459137 288.840942,454.466522 
z"/>
<path fill="#F7F7F7" opacity="1.000000" stroke="none" 
	d="
M396.110535,435.790588 
	C392.993958,436.348206 389.807861,436.420715 386.301117,436.241394 
	C386.043793,409.634918 386.107117,383.280243 386.271606,356.463135 
	C393.631958,356.371124 395.996735,358.819153 396.007660,366.207916 
	C396.041687,389.240417 396.033081,412.272980 396.110535,435.790588 
z"/>
<path fill="#654A31" opacity="1.000000" stroke="none" 
	d="
M287.643555,439.305054 
	C284.974457,439.204865 282.305389,439.104675 279.181732,439.067078 
	C271.582275,439.129700 264.437408,439.129700 257.292511,439.129700 
	C257.283569,438.274872 257.274597,437.420013 257.265656,436.565186 
	C264.146301,436.425751 271.026947,436.286316 278.359253,436.084778 
	C281.723389,435.500458 284.635803,434.978271 287.979156,434.716003 
	C288.424866,435.681305 288.439697,436.386688 288.360474,437.371155 
	C288.240875,438.042023 288.215363,438.433746 288.054230,438.946472 
	C287.918610,439.067474 287.643555,439.305054 287.643555,439.305054 
z"/>
<path fill="#070301" opacity="1.000000" stroke="none" 
	d="
M202.048752,440.282043 
	C194.791580,439.900146 193.129776,438.460541 192.358170,431.194244 
	C192.063431,428.418549 192.295654,425.575073 192.423706,422.768707 
	C192.708405,416.529510 195.382965,413.261597 200.160797,413.164764 
	C205.028854,413.066040 207.729721,416.157013 208.220886,423.239563 
	C208.203018,426.251556 208.202438,428.409515 208.156052,430.566467 
	C208.060349,435.017548 206.819427,438.763062 202.048752,440.282043 
z"/>
<path fill="#FCFAF8" opacity="1.000000" stroke="none" 
	d="
M202.100159,440.650574 
	C206.819427,438.763062 208.060349,435.017548 208.156052,430.566467 
	C208.202438,428.409515 208.203018,426.251556 208.308960,423.655212 
	C215.258438,423.303467 217.827805,425.674622 218.016602,432.252563 
	C218.106781,435.394806 218.172958,438.551941 217.974121,441.684845 
	C217.703720,445.945496 216.316391,449.560822 211.320602,450.139252 
	C206.330673,450.716980 203.831772,448.665680 202.430176,442.980927 
	C202.272873,442.342865 202.241425,441.673767 202.100159,440.650574 
z"/>
<path fill="#84533F" opacity="1.000000" stroke="none" 
	d="
M293.338959,427.355164 
	C293.694214,417.450104 294.049469,407.545044 295.028259,397.205444 
	C296.236786,394.563477 297.002533,392.385864 297.372375,390.142914 
	C298.418518,383.798584 299.302399,377.427551 300.544067,371.225922 
	C301.448730,371.641541 302.059509,371.898254 302.598694,372.589539 
	C301.971191,377.481659 301.415283,381.939240 300.832428,386.613037 
	C306.152679,382.690186 310.881256,379.203644 315.702118,375.649017 
	C315.496552,374.986176 315.207214,374.053131 315.040466,372.856476 
	C315.721222,372.076233 316.279388,371.559631 316.982117,371.246277 
	C317.306335,371.742310 317.552063,371.960754 317.942017,372.479858 
	C319.325348,373.507812 320.604797,374.655090 321.940338,374.724640 
	C326.669830,374.970825 331.432770,375.059692 336.151367,374.740204 
	C337.604645,374.641846 338.956665,373.047668 340.477753,372.058777 
	C340.600433,371.979126 340.884888,371.910889 341.246155,371.976166 
	C342.158081,372.486694 342.708710,372.931976 343.285461,373.687195 
	C342.933411,374.666443 342.555145,375.335785 342.232117,376.345215 
	C346.810791,379.814484 351.334198,382.943634 355.951050,386.350159 
	C356.536499,387.076752 357.028503,387.526031 358.293335,388.680939 
	C357.727295,386.042267 357.390350,384.471588 357.104004,382.505859 
	C357.028687,381.060516 356.902802,380.010254 356.824341,378.607483 
	C356.599274,377.137848 356.326782,376.020721 356.079712,374.453735 
	C356.025970,372.503662 355.946838,371.003418 356.154419,369.619049 
	C356.647278,369.732147 356.853424,369.729340 357.334686,369.908508 
	C357.821716,370.706665 358.033569,371.322876 358.229004,372.341492 
	C360.175507,384.424622 361.922791,396.148193 364.233643,407.759644 
	C364.920990,411.213531 363.907288,416.009216 368.616516,417.658630 
	C365.933136,418.219147 363.636475,418.621521 362.149292,418.882050 
	C360.434052,412.984680 359.326233,407.817291 357.335785,403.015839 
	C356.564270,401.154663 354.778503,400.071167 354.748535,397.335114 
	C354.688721,391.873413 346.342346,386.881134 340.312500,388.079712 
	C335.537720,389.028839 332.641327,394.446564 333.651672,399.883789 
	C332.576752,399.526031 331.813660,399.240112 330.939514,398.792908 
	C330.621490,398.407837 330.381653,398.364014 329.754333,398.365967 
	C328.908325,398.297058 328.416962,398.362274 327.713531,398.418884 
	C327.207764,398.480743 326.988037,398.648285 326.476562,398.917694 
	C325.317657,399.003815 324.524414,399.085144 324.103943,399.128235 
	C324.103943,397.537781 324.394287,396.123169 324.048859,394.886078 
	C323.060211,391.345520 321.124786,388.397217 317.109314,388.042480 
	C311.958923,387.587402 307.245331,389.462463 304.582275,393.705109 
	C301.744751,398.225647 299.559540,403.349213 298.128082,408.498230 
	C296.958160,412.706543 297.061737,417.340912 297.085480,421.783752 
	C297.101410,424.761566 296.492737,426.768311 293.338959,427.355164 
z"/>
<path fill="#FCFAF9" opacity="1.000000" stroke="none" 
	d="
M333.963470,399.955658 
	C332.641327,394.446564 335.537720,389.028839 340.312500,388.079712 
	C346.342346,386.881134 354.688721,391.873413 354.748535,397.335114 
	C354.778503,400.071167 356.564270,401.154663 357.335785,403.015839 
	C359.326233,407.817291 360.434052,412.984680 362.149292,418.882050 
	C363.636475,418.621521 365.933136,418.219147 368.885101,417.703888 
	C369.893494,417.619629 370.246582,417.648254 370.599670,417.676880 
	C370.778442,417.782013 370.957214,417.887115 371.437317,418.493103 
	C371.982239,423.390625 375.290344,420.189941 376.943024,421.093231 
	C377.472748,425.933014 378.002472,430.772766 377.815308,435.849121 
	C369.693146,436.084106 362.287781,436.082520 354.882446,436.080933 
	C354.882446,436.080933 354.979736,436.075195 354.984711,435.816101 
	C354.594940,435.105164 354.200195,434.653290 353.805450,434.201447 
	C353.660645,434.313782 353.515839,434.426147 353.371033,434.538483 
	C353.606079,435.054840 353.841125,435.571167 354.076172,436.087524 
	C354.076172,436.087524 353.998596,436.057678 353.567200,436.060059 
	C348.041229,436.082153 342.946625,436.101898 337.852051,436.121613 
	C337.852051,436.121613 337.948273,436.143188 337.975098,435.786804 
	C337.624725,433.896637 337.247528,432.362823 336.895142,430.483856 
	C339.592773,426.812042 342.265594,423.485413 344.938416,420.158783 
	C344.709290,419.705688 344.480194,419.252594 344.251099,418.799530 
	C337.238312,423.039093 334.182373,416.982239 330.158020,414.507111 
	C332.301697,411.846130 334.276062,409.395294 336.468781,406.710846 
	C336.466919,404.995300 336.246674,403.513367 335.996307,402.022522 
	C335.966187,402.013550 335.974121,401.951172 335.950439,401.639801 
	C335.303955,400.909149 334.681152,400.489868 334.033508,400.042816 
	C334.008636,400.015015 333.963470,399.955658 333.963470,399.955658 
M363.670166,434.170441 
	C365.446320,433.911926 367.435211,434.055115 368.929138,433.263824 
	C370.059418,432.665070 371.481262,430.101257 371.181641,429.742859 
	C369.682739,427.950256 367.815857,426.263885 365.729614,425.279083 
	C365.049347,424.957977 362.856293,426.606995 362.167633,427.817291 
	C361.030579,429.815399 359.437592,432.328125 363.670166,434.170441 
M341.723877,400.862915 
	C344.065643,402.708099 346.243408,402.152374 347.605316,399.843506 
	C348.223541,398.795410 348.148621,396.111328 347.554352,395.809143 
	C345.884125,394.959900 343.780823,394.962433 341.848297,394.629089 
	C341.628510,396.527771 341.408722,398.426453 341.723877,400.862915 
z"/>
<path fill="#FDFBFA" opacity="1.000000" stroke="none" 
	d="
M327.925568,398.427490 
	C328.416962,398.362274 328.908325,398.297058 329.877686,398.499817 
	C330.565521,398.910950 330.797180,398.973053 331.050598,398.954163 
	C331.813660,399.240112 332.576752,399.526031 333.651672,399.883789 
	C333.963470,399.955658 334.008636,400.015015 334.002869,400.315491 
	C333.983276,400.798462 333.969391,400.980957 333.572571,401.153870 
	C332.437805,401.005280 331.685974,400.866302 330.684357,400.508148 
	C328.967499,400.455872 327.500427,400.622772 325.658142,400.903076 
	C323.922913,401.501862 322.562836,401.987274 321.299622,402.438080 
	C320.624115,408.084076 323.108154,411.703613 328.284058,413.701019 
	C319.288666,420.076599 319.288666,420.076599 312.913971,419.305725 
	C314.152832,421.499512 315.124939,423.601379 316.445648,425.454895 
	C317.822235,427.386810 319.535034,429.079163 320.935913,431.150299 
	C320.612030,432.026825 320.453064,432.629272 320.228638,433.625793 
	C318.152130,439.394348 314.359100,436.857513 310.974396,435.687012 
	C309.926666,431.972900 308.869507,428.663483 307.812347,425.354034 
	C307.246460,425.551605 306.680542,425.749146 306.114655,425.946686 
	C307.428253,429.305847 308.741882,432.665039 309.929443,436.336243 
	C308.367615,436.838226 306.880981,436.866699 305.520142,437.294861 
	C304.947815,437.474915 304.641266,438.499634 304.213898,439.140381 
	C302.024902,442.200317 294.279907,444.640564 290.568420,442.800385 
	C289.775146,441.875214 289.361023,441.469910 288.946930,441.064575 
	C288.946930,441.064575 289.002869,441.017548 289.000427,440.715851 
	C288.975067,440.001953 288.952118,439.589783 288.951141,438.900024 
	C288.800262,438.112366 288.627380,437.602203 288.454529,437.092072 
	C288.439697,436.386688 288.424866,435.681305 288.363403,434.619385 
	C288.316711,434.262848 288.306549,434.227478 288.564758,434.034119 
	C288.920837,433.250397 289.018738,432.660065 289.116638,432.069733 
	C289.116638,432.069733 289.006226,432.009033 289.344543,431.972687 
	C289.888367,431.388245 290.093903,430.840149 290.299438,430.292053 
	C290.299438,430.292053 290.106354,430.103302 290.489502,430.103516 
	C290.996063,429.763519 291.119476,429.423309 291.242889,429.083099 
	C291.517365,429.009277 291.739136,428.858154 292.289124,428.440796 
	C292.871246,427.969604 293.072479,427.687347 293.273682,427.405060 
	C293.273682,427.405060 293.312164,427.386414 293.325562,427.370789 
	C296.492737,426.768311 297.101410,424.761566 297.085480,421.783752 
	C297.061737,417.340912 296.958160,412.706543 298.128082,408.498230 
	C299.559540,403.349213 301.744751,398.225647 304.582275,393.705109 
	C307.245331,389.462463 311.958923,387.587402 317.109314,388.042480 
	C321.124786,388.397217 323.060211,391.345520 324.048859,394.886078 
	C324.394287,396.123169 324.103943,397.537781 324.103943,399.128235 
	C324.524414,399.085144 325.317657,399.003815 326.684906,398.911011 
	C327.545715,398.833435 327.767944,398.676056 327.925568,398.427490 
M315.936340,394.891510 
	C315.936340,394.891510 315.692352,394.583405 315.033905,394.500519 
	C313.291748,395.150024 311.254242,395.466339 309.956268,396.616943 
	C309.453796,397.062317 310.198029,399.890747 311.161255,400.725891 
	C312.044922,401.492065 315.100922,401.473633 315.269745,401.043427 
	C315.975464,399.245300 315.954468,397.161926 315.936340,394.891510 
M303.277588,425.963440 
	C303.738281,425.674500 304.198975,425.385559 304.659668,425.096619 
	C304.548279,424.844666 304.436859,424.592682 304.325439,424.340729 
	C303.230774,424.667633 302.136108,424.994537 299.677277,425.728821 
	C301.673401,425.905090 302.161987,425.948242 303.277588,425.963440 
z"/>
<path fill="#EC6813" opacity="1.000000" stroke="none" 
	d="
M370.647949,417.265961 
	C370.246582,417.648254 369.893494,417.619629 369.271851,417.545746 
	C363.907288,416.009216 364.920990,411.213531 364.233643,407.759644 
	C361.922791,396.148193 360.175507,384.424622 358.669373,372.357666 
	C362.818756,371.974304 366.511353,371.977203 370.203979,371.980072 
	C370.368073,386.938416 370.532135,401.896729 370.647949,417.265961 
z"/>
<path fill="#FEFEFD" opacity="1.000000" stroke="none" 
	d="
M317.863861,372.104889 
	C317.552063,371.960754 317.306335,371.742310 316.908447,370.912567 
	C315.129089,367.607605 313.567902,364.839600 312.006744,362.071594 
	C323.306732,362.059875 334.606750,362.048187 346.220337,362.385254 
	C344.650909,365.793030 342.767914,368.851959 340.884888,371.910889 
	C340.884888,371.910889 340.600433,371.979126 339.975494,372.002808 
	C332.188324,372.052612 325.026093,372.078766 317.863861,372.104889 
z"/>
<path fill="#FDFBFA" opacity="1.000000" stroke="none" 
	d="
M300.250183,371.067017 
	C299.302399,377.427551 298.418518,383.798584 297.372375,390.142914 
	C297.002533,392.385864 296.236786,394.563477 295.283386,396.905243 
	C294.915039,385.498535 294.915039,373.957489 294.915039,362.002838 
	C297.461517,362.002838 299.728058,362.002838 302.420044,362.408386 
	C301.980377,365.564972 301.115295,368.315979 300.250183,371.067017 
z"/>
<path fill="#FEFDFD" opacity="1.000000" stroke="none" 
	d="
M370.331848,371.532471 
	C366.511353,371.977203 362.818756,371.974304 358.685791,371.955231 
	C358.033569,371.322876 357.821716,370.706665 357.468872,369.649261 
	C356.888794,368.475769 356.449738,367.743469 356.005920,367.006226 
	C356.001190,367.001221 355.989807,366.989441 356.118835,366.697876 
	C356.166412,365.000916 356.084991,363.595520 356.003571,362.190094 
	C360.714539,362.190094 365.425537,362.190094 370.459747,362.190094 
	C370.459747,365.277100 370.459747,368.180969 370.331848,371.532471 
z"/>
<path fill="#8B5E4F" opacity="1.000000" stroke="none" 
	d="
M300.544067,371.225922 
	C301.115295,368.315979 301.980377,365.564972 302.869904,362.456909 
	C305.626343,359.584229 308.452667,359.810364 311.673370,361.940430 
	C313.567902,364.839600 315.129089,367.607605 316.763916,370.709351 
	C316.279388,371.559631 315.721222,372.076233 314.771545,372.643250 
	C312.430023,368.798981 310.634155,364.769653 305.480286,362.274292 
	C304.420563,366.000580 303.545441,369.077789 302.670288,372.154968 
	C302.059509,371.898254 301.448730,371.641541 300.544067,371.225922 
z"/>
<path fill="#8B5E4F" opacity="1.000000" stroke="none" 
	d="
M341.246185,371.976166 
	C342.767914,368.851959 344.650909,365.793030 346.673950,362.444641 
	C349.317505,360.656525 351.788116,358.675995 354.854492,362.207275 
	C355.077515,363.200806 355.041687,363.610138 354.643005,364.022949 
	C352.610901,364.348785 350.290314,364.097900 349.401733,365.107391 
	C347.250702,367.551208 345.767151,370.582520 343.825775,373.372559 
	C343.636963,373.368073 343.259308,373.377258 343.259308,373.377258 
	C342.708710,372.931976 342.158081,372.486694 341.246185,371.976166 
z"/>
<path fill="#FCFAF8" opacity="1.000000" stroke="none" 
	d="
M355.005859,364.019440 
	C355.041687,363.610138 355.077515,363.200806 355.086884,362.483215 
	C355.060455,362.174927 355.533966,362.061890 355.768768,362.125977 
	C356.084991,363.595520 356.166412,365.000916 355.837646,366.674408 
	C355.286957,365.968140 355.146423,364.993774 355.005859,364.019440 
z"/>
<path fill="#84533F" opacity="1.000000" stroke="none" 
	d="
M376.978943,420.829895 
	C375.290344,420.189941 371.982239,423.390625 371.708466,418.645538 
	C373.172455,418.866516 374.666626,419.435913 376.532990,420.025909 
	C376.941711,420.219879 376.978271,420.393219 376.978943,420.829895 
z"/>
<path fill="#654A31" opacity="1.000000" stroke="none" 
	d="
M289.963989,430.297516 
	C290.093903,430.840149 289.888367,431.388245 289.391754,432.014404 
	C289.276642,431.495972 289.452606,430.899475 289.963989,430.297516 
z"/>
<path fill="#654A31" opacity="1.000000" stroke="none" 
	d="
M288.790680,432.184265 
	C289.018738,432.660065 288.920837,433.250397 288.579498,434.022888 
	C288.378967,433.569611 288.421844,432.934235 288.790680,432.184265 
z"/>
<path fill="#654A31" opacity="1.000000" stroke="none" 
	d="
M290.930023,429.114655 
	C291.119476,429.423309 290.996063,429.763519 290.601135,430.179504 
	C290.425415,429.885559 290.521301,429.515900 290.930023,429.114655 
z"/>
<path fill="#84533F" opacity="1.000000" stroke="none" 
	d="
M292.969177,427.338196 
	C293.072479,427.687347 292.871246,427.969604 292.394562,428.265808 
	C292.300934,427.943573 292.482819,427.607452 292.969177,427.338196 
z"/>
<path fill="#E6817D" opacity="1.000000" stroke="none" 
	d="
M320.294067,433.231750 
	C320.453064,432.629272 320.612030,432.026825 321.201599,430.967834 
	C323.118622,423.890167 329.438904,428.771240 332.516876,425.937042 
	C333.968018,427.567719 335.419159,429.198395 336.870331,430.829041 
	C337.247528,432.362823 337.624725,433.896637 337.949341,435.828857 
	C337.679932,437.019806 337.393433,437.800568 337.257690,438.606720 
	C336.486664,443.185638 334.171906,446.412445 329.287933,446.774658 
	C324.507690,447.129150 322.032013,444.224518 320.897156,439.163879 
	C320.697296,436.695221 320.495697,434.963470 320.294067,433.231750 
z"/>
<path fill="#7E4034" opacity="1.000000" stroke="none" 
	d="
M320.228638,433.625793 
	C320.495697,434.963470 320.697296,436.695221 320.814453,438.814270 
	C315.525848,439.145660 310.321716,439.089752 304.665771,439.087097 
	C304.641266,438.499634 304.947815,437.474915 305.520142,437.294861 
	C306.880981,436.866699 308.367615,436.838226 310.159668,436.314697 
	C310.515930,435.981140 310.964966,436.091705 310.964966,436.091705 
	C314.359100,436.857513 318.152130,439.394348 320.228638,433.625793 
z"/>
<path fill="#E6817D" opacity="1.000000" stroke="none" 
	d="
M355.029602,436.516235 
	C362.287781,436.082520 369.693146,436.084106 377.554382,436.175812 
	C370.399078,436.494476 362.787903,436.723022 355.029602,436.516235 
z"/>
<path fill="#E6817D" opacity="1.000000" stroke="none" 
	d="
M338.011963,436.551300 
	C342.946625,436.101898 348.041229,436.082153 353.608643,436.057556 
	C348.778259,436.362122 343.475067,436.671570 338.011963,436.551300 
z"/>
<path fill="#E6817D" opacity="1.000000" stroke="none" 
	d="
M354.279785,436.173889 
	C353.841125,435.571167 353.606079,435.054840 353.371033,434.538483 
	C353.515839,434.426147 353.660645,434.313782 353.805450,434.201447 
	C354.200195,434.653290 354.594940,435.105164 354.949768,435.850067 
	C354.909882,436.143127 354.483368,436.260254 354.279785,436.173889 
z"/>
<path fill="#654A31" opacity="1.000000" stroke="none" 
	d="
M288.929169,439.177582 
	C288.952118,439.589783 288.975067,440.001953 288.964661,440.723114 
	C288.566376,440.633423 288.201477,440.234772 287.740051,439.570587 
	C287.643555,439.305054 287.918610,439.067474 288.241119,439.030182 
	C288.563629,438.992889 288.929169,439.177582 288.929169,439.177582 
z"/>
<path fill="#654A31" opacity="1.000000" stroke="none" 
	d="
M288.921814,441.390991 
	C289.361023,441.469910 289.775146,441.875214 290.236633,442.577698 
	C289.821564,442.489044 289.359131,442.103210 288.921814,441.390991 
z"/>
<path fill="#FAF7F6" opacity="1.000000" stroke="none" 
	d="
M288.951141,438.900024 
	C288.929169,439.177582 288.563629,438.992889 288.376740,438.909180 
	C288.215363,438.433746 288.240875,438.042023 288.360474,437.371155 
	C288.627380,437.602203 288.800262,438.112366 288.951141,438.900024 
z"/>
<path fill="#FCFAF8" opacity="1.000000" stroke="none" 
	d="
M302.598694,372.589508 
	C303.545441,369.077789 304.420563,366.000580 305.480286,362.274292 
	C310.634155,364.769653 312.430023,368.798981 314.648956,372.906921 
	C315.207214,374.053131 315.496552,374.986176 315.702118,375.649017 
	C310.881256,379.203644 306.152679,382.690186 300.832428,386.613037 
	C301.415283,381.939240 301.971191,377.481659 302.598694,372.589508 
z"/>
<path fill="#FEFDFD" opacity="1.000000" stroke="none" 
	d="
M354.643005,364.022949 
	C355.146423,364.993774 355.286957,365.968140 355.708649,366.965942 
	C355.989807,366.989441 356.001190,367.001221 355.999817,367.320984 
	C355.954834,368.261536 355.911255,368.882355 355.867676,369.503143 
	C355.946838,371.003418 356.025970,372.503662 356.056366,374.813202 
	C356.264038,376.734985 356.520477,377.847473 356.776917,378.959991 
	C356.902802,380.010254 357.028687,381.060516 357.077576,382.866211 
	C356.619629,384.438721 356.238617,385.255737 355.857635,386.072784 
	C351.334198,382.943634 346.810791,379.814484 342.537262,376.294495 
	C343.196320,375.061493 343.605438,374.219269 344.014587,373.377075 
	C345.767151,370.582520 347.250702,367.551208 349.401733,365.107391 
	C350.290314,364.097900 352.610901,364.348785 354.643005,364.022949 
z"/>
<path fill="#FD6D0F" opacity="1.000000" stroke="none" 
	d="
M317.942017,372.479858 
	C325.026093,372.078766 332.188324,372.052612 339.852814,372.082458 
	C338.956665,373.047668 337.604645,374.641846 336.151367,374.740204 
	C331.432770,375.059692 326.669830,374.970825 321.940338,374.724640 
	C320.604797,374.655090 319.325348,373.507812 317.942017,372.479858 
z"/>
<path fill="#FCFAF8" opacity="1.000000" stroke="none" 
	d="
M355.951050,386.350159 
	C356.238617,385.255737 356.619629,384.438721 357.027008,383.261292 
	C357.390350,384.471588 357.727295,386.042267 358.293335,388.680939 
	C357.028503,387.526031 356.536499,387.076752 355.951050,386.350159 
z"/>
<path fill="#FCFAF8" opacity="1.000000" stroke="none" 
	d="
M356.154388,369.619049 
	C355.911255,368.882355 355.954834,368.261536 356.004517,367.325989 
	C356.449738,367.743469 356.888794,368.475769 357.193726,369.467285 
	C356.853424,369.729340 356.647278,369.732147 356.154388,369.619049 
z"/>
<path fill="#FCFAF8" opacity="1.000000" stroke="none" 
	d="
M343.825775,373.372559 
	C343.605438,374.219269 343.196320,375.061493 342.482025,375.954407 
	C342.555145,375.335785 342.933411,374.666443 343.285461,373.687195 
	C343.259308,373.377258 343.636963,373.368073 343.825775,373.372559 
z"/>
<path fill="#FCFAF8" opacity="1.000000" stroke="none" 
	d="
M356.824341,378.607483 
	C356.520477,377.847473 356.264038,376.734985 356.030945,375.263000 
	C356.326782,376.020721 356.599274,377.137848 356.824341,378.607483 
z"/>
<path fill="#F3F3F3" opacity="1.000000" stroke="none" 
	d="
M327.713531,398.418884 
	C327.767944,398.676056 327.545715,398.833435 327.050598,398.906189 
	C326.988037,398.648285 327.207764,398.480743 327.713531,398.418884 
z"/>
<path fill="#F3F3F3" opacity="1.000000" stroke="none" 
	d="
M330.939514,398.792908 
	C330.797180,398.973053 330.565521,398.910950 330.232269,398.633972 
	C330.381653,398.364014 330.621490,398.407837 330.939514,398.792908 
z"/>
<path fill="#7E4034" opacity="1.000000" stroke="none" 
	d="
M336.895142,430.483856 
	C335.419159,429.198395 333.968018,427.567719 332.516876,425.937042 
	C329.438904,428.771240 323.118622,423.890167 321.366486,430.693787 
	C319.535034,429.079163 317.822235,427.386810 316.445648,425.454895 
	C315.124939,423.601379 314.152832,421.499512 312.913971,419.305725 
	C319.288666,420.076599 319.288666,420.076599 328.284058,413.701019 
	C323.108154,411.703613 320.624115,408.084076 321.299622,402.438080 
	C322.562836,401.987274 323.922913,401.501862 326.065308,400.956116 
	C328.209778,400.839569 329.571930,400.783447 330.934113,400.727325 
	C331.685974,400.866302 332.437805,401.005280 333.745422,401.381592 
	C334.858795,401.729706 335.416473,401.840424 335.974121,401.951172 
	C335.974121,401.951172 335.966187,402.013550 335.995453,402.433655 
	C336.099945,404.217346 336.175201,405.580902 336.250427,406.944489 
	C334.276062,409.395294 332.301697,411.846130 330.158020,414.507111 
	C334.182373,416.982239 337.238312,423.039093 344.251099,418.799530 
	C344.480194,419.252594 344.709290,419.705688 344.938416,420.158783 
	C342.265594,423.485413 339.592773,426.812042 336.895142,430.483856 
z"/>
<path fill="#E6817D" opacity="1.000000" stroke="none" 
	d="
M363.256836,434.098236 
	C359.437592,432.328125 361.030579,429.815399 362.167633,427.817291 
	C362.856293,426.606995 365.049347,424.957977 365.729614,425.279083 
	C367.815857,426.263885 369.682739,427.950256 371.181641,429.742859 
	C371.481262,430.101257 370.059418,432.665070 368.929138,433.263824 
	C367.435211,434.055115 365.446320,433.911926 363.256836,434.098236 
z"/>
<path fill="#7E4034" opacity="1.000000" stroke="none" 
	d="
M341.456421,400.594025 
	C341.408722,398.426453 341.628510,396.527771 341.848297,394.629089 
	C343.780823,394.962433 345.884125,394.959900 347.554352,395.809143 
	C348.148621,396.111328 348.223541,398.795410 347.605316,399.843506 
	C346.243408,402.152374 344.065643,402.708099 341.456421,400.594025 
z"/>
<path fill="#F3F3F3" opacity="1.000000" stroke="none" 
	d="
M336.468781,406.710846 
	C336.175201,405.580902 336.099945,404.217346 336.025574,402.442627 
	C336.246674,403.513367 336.466919,404.995300 336.468781,406.710846 
z"/>
<path fill="#F3F3F3" opacity="1.000000" stroke="none" 
	d="
M335.950439,401.639801 
	C335.416473,401.840424 334.858795,401.729706 334.128296,401.391235 
	C333.969391,400.980957 333.983276,400.798462 334.027740,400.343292 
	C334.681152,400.489868 335.303955,400.909149 335.950439,401.639801 
z"/>
<path fill="#7E4034" opacity="1.000000" stroke="none" 
	d="
M316.199860,395.183105 
	C315.954468,397.161926 315.975464,399.245300 315.269745,401.043427 
	C315.100922,401.473633 312.044922,401.492065 311.161255,400.725891 
	C310.198029,399.890747 309.453796,397.062317 309.956268,396.616943 
	C311.254242,395.466339 313.291748,395.150024 314.986084,394.545410 
	C314.723846,395.323364 314.509369,396.056396 314.294891,396.789429 
	C314.929871,396.253998 315.564880,395.718536 316.199860,395.183105 
z"/>
<path fill="#FAF7F6" opacity="1.000000" stroke="none" 
	d="
M310.974396,435.687012 
	C310.964966,436.091705 310.515930,435.981140 310.285706,436.002686 
	C308.741882,432.665039 307.428253,429.305847 306.114655,425.946686 
	C306.680542,425.749146 307.246460,425.551605 307.812347,425.354034 
	C308.869507,428.663483 309.926666,431.972900 310.974396,435.687012 
z"/>
<path fill="#FAF7F6" opacity="1.000000" stroke="none" 
	d="
M302.964050,425.977417 
	C302.161987,425.948242 301.673401,425.905090 299.677277,425.728821 
	C302.136108,424.994537 303.230774,424.667633 304.325439,424.340729 
	C304.436859,424.592682 304.548279,424.844666 304.659668,425.096619 
	C304.198975,425.385559 303.738281,425.674500 302.964050,425.977417 
z"/>
<path fill="#F3F3F3" opacity="1.000000" stroke="none" 
	d="
M330.684357,400.508148 
	C329.571930,400.783447 328.209778,400.839569 326.440460,400.842682 
	C327.500427,400.622772 328.967499,400.455872 330.684357,400.508148 
z"/>
<path fill="#FDFBFA" opacity="1.000000" stroke="none" 
	d="
M316.068115,395.037292 
	C315.564880,395.718536 314.929871,396.253998 314.294891,396.789429 
	C314.509369,396.056396 314.723846,395.323364 315.315308,394.586853 
	C315.692352,394.583405 315.936340,394.891510 316.068115,395.037292 
z"/>
</svg>