<svg version="1.1" id="Layer_1" xmlns="http://www.w3.org/2000/svg" xmlns:xlink="http://www.w3.org/1999/xlink" x="0px" y="0px"
	 width="100%" viewBox="0 0 512 512" enable-background="new 0 0 512 512" xml:space="preserve">
<path fill="#FEFEFE" opacity="1.000000" stroke="none" 
	d="
M9.000000,513.000000 
	C6.334159,513.000000 3.668318,513.000000 1.001857,513.000000 
	C1.001238,342.386993 1.001238,171.773972 1.001238,1.080477 
	C171.560150,1.080477 342.120331,1.080477 512.840271,1.080477 
	C512.840271,171.666534 512.840271,342.333252 512.840271,513.000000 
	C510.645447,513.000000 508.312805,513.000000 505.473785,512.778198 
	C504.967407,512.556458 505.041199,512.117981 505.383118,512.009460 
	C509.806396,509.824707 510.897400,506.272064 509.780975,502.233398 
	C508.653656,498.155487 505.398926,496.789459 501.283478,496.803375 
	C482.286011,496.867676 463.288177,496.831238 444.290497,496.830902 
	C442.540680,496.830872 440.790863,496.830902 438.841095,496.830902 
	C438.841095,494.288116 438.841095,492.461670 438.841095,490.635193 
	C438.841095,421.143646 438.900635,351.651917 438.729950,282.160797 
	C438.716034,276.499634 439.066254,271.776123 444.788574,269.031769 
	C445.930939,268.483887 446.798309,267.304260 447.706268,266.335175 
	C454.528168,259.053955 457.617249,250.376068 457.533875,240.438904 
	C457.446228,229.995758 457.514221,219.551300 457.514221,209.092422 
	C462.596710,208.487213 467.067841,207.394012 467.559845,202.006104 
	C467.783752,199.554474 466.519165,196.860092 465.556854,194.423065 
	C452.450867,161.232834 439.281494,128.067642 426.122498,94.898361 
	C423.219971,87.582077 422.150635,86.838409 414.322968,86.835075 
	C388.326141,86.823990 362.329285,86.830887 336.332458,86.830879 
	C334.572083,86.830879 332.811707,86.830879 331.004883,86.830879 
	C330.930267,85.164795 330.847382,84.170845 330.846924,83.176872 
	C330.838898,66.178940 330.854675,49.180988 330.835541,32.183079 
	C330.825409,23.187828 328.522217,20.830547 319.809906,20.829561 
	C277.481720,20.824770 235.153519,20.819420 192.825333,20.834593 
	C184.986984,20.837402 182.833878,23.045212 182.829941,30.937439 
	C182.821564,47.768719 182.827377,64.600014 182.827377,81.431297 
	C182.827377,83.173126 182.827377,84.914948 182.827377,86.831017 
	C154.021149,86.831017 126.030647,86.903534 98.041183,86.766312 
	C92.803413,86.740631 89.776329,88.762863 87.884171,93.651054 
	C80.753952,112.071266 73.378448,130.396469 66.105835,148.761627 
	C59.749062,164.814041 53.370750,180.858078 47.076244,196.934906 
	C44.504513,203.503387 46.424099,207.043121 53.249649,208.729477 
	C54.130333,208.947052 55.042675,209.036499 56.103344,209.212311 
	C56.103344,220.801529 55.870785,231.965057 56.167179,243.114548 
	C56.478516,254.826096 61.621014,264.282928 71.267754,270.933624 
	C74.124352,272.903046 74.892525,274.965240 74.888840,278.214417 
	C74.808258,349.205688 74.827377,420.197113 74.827377,491.188477 
	C74.827377,492.953979 74.827377,494.719513 74.827377,496.830902 
	C72.381897,496.830902 70.578033,496.830811 68.774162,496.830902 
	C49.943119,496.831726 31.112059,496.846497 12.281046,496.822906 
	C8.017222,496.817535 4.632161,498.122742 3.754821,502.742554 
	C2.910440,507.188873 4.311251,510.625519 8.965839,512.373047 
	C8.985141,512.581543 9.000000,513.000000 9.000000,513.000000 
z"/>
<path fill="#BFBFBF" opacity="1.000000" stroke="none" 
	d="
M9.462639,513.000000 
	C9.000000,513.000000 8.985141,512.581543 9.431910,512.293091 
	C173.270218,512.005310 336.661743,512.005676 500.053284,512.011353 
	C501.715912,512.011414 503.378571,512.080933 505.041199,512.117981 
	C505.041199,512.117981 504.967407,512.556458 504.983704,512.778198 
	C339.975098,513.000000 174.950180,513.000000 9.462639,513.000000 
z"/>
<path fill="#030302" opacity="1.000000" stroke="none" 
	d="
M505.383118,512.009460 
	C503.378571,512.080933 501.715912,512.011414 500.053284,512.011353 
	C336.661743,512.005676 173.270218,512.005310 9.412609,512.084595 
	C4.311251,510.625519 2.910440,507.188873 3.754821,502.742554 
	C4.632161,498.122742 8.017222,496.817535 12.281046,496.822906 
	C31.112059,496.846497 49.943119,496.831726 68.774162,496.830902 
	C70.578033,496.830811 72.381897,496.830902 74.827377,496.830902 
	C74.827377,494.719513 74.827377,492.953979 74.827377,491.188477 
	C74.827377,420.197113 74.808258,349.205688 74.888840,278.214417 
	C74.892525,274.965240 74.124352,272.903046 71.267754,270.933624 
	C61.621014,264.282928 56.478516,254.826096 56.167179,243.114548 
	C55.870785,231.965057 56.103344,220.801529 56.103344,209.212311 
	C55.042675,209.036499 54.130333,208.947052 53.249649,208.729477 
	C46.424099,207.043121 44.504513,203.503387 47.076244,196.934906 
	C53.370750,180.858078 59.749062,164.814041 66.105835,148.761627 
	C73.378448,130.396469 80.753952,112.071266 87.884171,93.651054 
	C89.776329,88.762863 92.803413,86.740631 98.041183,86.766312 
	C126.030647,86.903534 154.021149,86.831017 182.827377,86.831017 
	C182.827377,84.914948 182.827377,83.173126 182.827377,81.431297 
	C182.827377,64.600014 182.821564,47.768719 182.829941,30.937439 
	C182.833878,23.045212 184.986984,20.837402 192.825333,20.834593 
	C235.153519,20.819420 277.481720,20.824770 319.809906,20.829561 
	C328.522217,20.830547 330.825409,23.187828 330.835541,32.183079 
	C330.854675,49.180988 330.838898,66.178940 330.846924,83.176872 
	C330.847382,84.170845 330.930267,85.164795 331.004883,86.830879 
	C332.811707,86.830879 334.572083,86.830879 336.332458,86.830879 
	C362.329285,86.830887 388.326141,86.823990 414.322968,86.835075 
	C422.150635,86.838409 423.219971,87.582077 426.122498,94.898361 
	C439.281494,128.067642 452.450867,161.232834 465.556854,194.423065 
	C466.519165,196.860092 467.783752,199.554474 467.559845,202.006104 
	C467.067841,207.394012 462.596710,208.487213 457.514221,209.092422 
	C457.514221,219.551300 457.446228,229.995758 457.533875,240.438904 
	C457.617249,250.376068 454.528168,259.053955 447.706268,266.335175 
	C446.798309,267.304260 445.930939,268.483887 444.788574,269.031769 
	C439.066254,271.776123 438.716034,276.499634 438.729950,282.160797 
	C438.900635,351.651917 438.841095,421.143646 438.841095,490.635193 
	C438.841095,492.461670 438.841095,494.288116 438.841095,496.830902 
	C440.790863,496.830902 442.540680,496.830872 444.290497,496.830902 
	C463.288177,496.831238 482.286011,496.867676 501.283478,496.803375 
	C505.398926,496.789459 508.653656,498.155487 509.780975,502.233398 
	C510.897400,506.272064 509.806396,509.824707 505.383118,512.009460 
M245.452621,56.311157 
	C248.183884,58.265732 250.915161,60.220310 253.876404,62.339455 
	C253.876404,56.883488 253.876404,51.627357 254.004684,45.424835 
	C254.004684,42.521671 254.004684,39.618507 254.004684,36.783401 
	C247.287964,36.783401 241.239655,36.783401 235.372879,36.783401 
	C235.372879,45.572563 235.372879,54.043365 235.372879,61.862236 
	C238.522980,59.906628 241.675385,57.949581 245.452621,56.311157 
M403.622131,272.424805 
	C400.529358,269.981689 397.436584,267.538544 394.283234,265.047577 
	C381.709717,278.159119 366.903839,280.912048 349.735443,273.116974 
	C346.190857,270.486816 342.646301,267.856628 338.926514,265.096466 
	C326.063843,278.522125 310.958588,281.058441 293.538116,272.545685 
	C290.375580,270.031403 287.213043,267.517120 284.029144,264.985870 
	C271.353790,278.208466 256.703156,280.862335 239.724991,273.110474 
	C236.184753,270.462219 232.644501,267.813934 229.074600,265.143494 
	C214.537247,278.255188 203.924347,280.504395 185.444717,273.739166 
	C181.513657,270.861572 177.582596,267.984009 173.649033,265.110046 
	C159.978500,278.313873 148.968521,280.510040 129.746704,273.219147 
	C126.076378,270.510498 122.406044,267.801849 118.582054,264.979797 
	C111.330742,273.518036 101.716248,277.318542 90.859146,277.703186 
	C90.859146,351.038513 90.859146,423.841309 90.859146,496.680817 
	C94.237289,496.680817 97.220131,496.680817 101.100403,496.838684 
	C109.698334,496.838684 118.296265,496.838684 127.328079,496.838684 
	C127.328079,494.348389 127.328087,492.543427 127.328087,490.738464 
	C127.328087,461.618347 127.300438,432.498138 127.358269,403.378143 
	C127.366829,399.068176 127.586807,394.738831 128.035736,390.452698 
	C131.225586,359.997681 163.221634,336.074707 193.330078,341.392090 
	C210.248322,344.380005 223.624741,352.651337 233.148087,367.613831 
	C233.746689,368.098877 234.345291,368.583923 235.003677,369.007355 
	C235.003677,369.007355 234.933838,369.055969 235.002213,369.773804 
	C240.718719,379.676208 242.825775,390.456848 242.822372,401.761658 
	C242.813385,431.678192 242.819305,461.594696 242.819305,491.511230 
	C242.819305,493.249542 242.819321,494.987823 242.819321,496.603668 
	C246.603256,496.603668 249.579376,496.603668 253.532196,496.788025 
	C309.938721,496.788025 366.345276,496.788025 422.993622,496.788025 
	C422.993622,494.026245 422.993622,492.034088 422.993622,490.041931 
	C422.993622,433.709625 423.001801,377.377350 422.986908,321.045044 
	C422.983795,309.381439 422.895081,297.717804 423.005280,285.153168 
	C423.005280,282.714874 423.005280,280.276581 423.005280,278.766144 
	C416.211395,276.692841 410.111908,274.831451 403.622131,272.424805 
M110.985214,218.086334 
	C110.985214,215.153793 110.985214,212.221252 110.985214,209.320587 
	C97.660400,209.320587 84.809105,209.320587 71.914719,209.320587 
	C71.914719,220.756409 71.787560,231.876343 71.958046,242.991714 
	C72.077866,250.803772 75.672211,256.561554 83.800117,260.060852 
	C98.020821,264.370239 110.549049,256.788330 110.938011,243.404236 
	C111.174210,235.276688 110.885521,227.133865 110.985214,218.086334 
M248.696564,259.870239 
	C249.484146,260.118622 250.260727,260.411743 251.060944,260.608765 
	C264.988922,264.038513 276.101440,255.517258 276.133606,241.316269 
	C276.150452,233.876862 276.010132,226.437103 276.140106,218.090729 
	C276.140106,215.158188 276.140106,212.225647 276.140106,209.357574 
	C262.799072,209.357574 249.939621,209.357574 237.004074,209.357574 
	C237.004074,220.522583 236.866867,231.335098 237.049744,242.142212 
	C237.183578,250.051483 240.345917,256.276428 248.696564,259.870239 
M166.141159,218.093201 
	C166.141159,215.166183 166.141159,212.239166 166.141159,209.304810 
	C152.851761,209.304810 140.019073,209.304810 127.089836,209.304810 
	C127.089836,220.701965 126.858116,231.803192 127.171089,242.889038 
	C127.380630,250.311234 130.394211,256.358032 138.449890,259.744904 
	C139.394135,260.063660 140.320206,260.458282 141.285400,260.689606 
	C153.793381,263.687592 165.565750,256.123962 166.033936,244.419525 
	C166.372284,235.961243 165.998001,227.474442 166.141159,218.093201 
M221.141159,218.093201 
	C221.141159,215.165222 221.141159,212.237228 221.141159,209.313080 
	C207.843658,209.313080 195.006531,209.313080 182.056305,209.313080 
	C182.056305,220.726700 181.808090,231.837021 182.143509,242.929688 
	C182.367477,250.336411 185.394547,256.400330 193.473892,259.761871 
	C194.263306,260.017670 195.042358,260.312897 195.843689,260.523376 
	C208.707962,263.902191 220.681458,256.156097 221.075394,243.901245 
	C221.341873,235.610947 221.007278,227.301346 221.141159,218.093201 
M441.463806,218.267319 
	C441.463806,215.309326 441.463806,212.351349 441.463806,209.306732 
	C428.183472,209.306732 415.315155,209.306732 402.197479,209.306732 
	C402.197479,220.903687 401.898956,232.203873 402.304718,243.478714 
	C402.565735,250.732376 405.977600,256.517944 413.659332,259.941437 
	C428.259979,264.457092 440.673950,257.195496 441.302124,243.415222 
	C441.672302,235.295059 441.237915,227.138229 441.463806,218.267319 
M331.045502,217.786591 
	C331.045502,214.998917 331.045502,212.211258 331.045502,209.248535 
	C317.963531,209.248535 305.258606,209.248535 292.403229,209.248535 
	C292.403229,220.926804 292.114471,232.365860 292.509674,243.781250 
	C292.753571,250.826736 295.943085,256.513184 303.579346,259.712036 
	C318.019623,264.319611 330.625092,257.377472 331.297028,244.033112 
	C331.721985,235.592819 331.218781,227.105804 331.045502,217.786591 
M386.463715,218.270645 
	C386.463715,215.316666 386.463715,212.362671 386.463715,209.275146 
	C373.210541,209.275146 360.357727,209.275146 347.212585,209.275146 
	C347.212585,220.813004 346.873199,232.089645 347.335571,243.333298 
	C347.628784,250.463058 350.711792,256.446625 358.573517,259.709595 
	C373.077179,264.339050 385.542847,257.428558 386.264893,243.948486 
	C386.708954,235.658478 386.229614,227.318985 386.463715,218.270645 
M216.035110,371.962250 
	C216.035110,371.962250 216.141174,371.949768 216.320831,371.252106 
	C204.748688,358.023987 186.871170,353.431854 170.522980,359.488190 
	C154.008530,365.606110 143.175278,381.052521 143.163956,398.597412 
	C143.143967,429.567657 143.158371,460.537933 143.158371,491.508179 
	C143.158371,493.128357 143.158371,494.748535 143.158371,496.625336 
	C146.755417,496.625336 149.867035,496.625336 153.903030,496.798798 
	C178.128601,496.798798 202.354156,496.798798 226.758591,496.798798 
	C226.758591,463.560059 226.945129,431.100525 226.643188,398.645508 
	C226.554382,389.098175 224.347305,379.841888 216.883057,372.202545 
	C216.601578,372.086884 216.320114,371.971222 216.035110,371.962250 
M314.968170,45.737381 
	C314.968170,42.780685 314.968170,39.823990 314.968170,36.857719 
	C299.745941,36.857719 284.895782,36.857719 269.811279,36.857719 
	C269.811279,52.555523 269.823456,67.860130 269.806030,83.164696 
	C269.797516,90.629166 267.825317,92.881737 259.981873,93.570602 
	C257.700562,91.739067 255.419281,89.907532 252.891983,87.422020 
	C250.152023,84.037216 247.412064,80.652412 244.471481,77.019768 
	C241.769135,80.372673 239.548523,83.441193 236.997330,86.204506 
	C234.479370,88.931839 231.627029,91.350449 228.149841,93.858078 
	C221.232971,93.146027 219.033752,90.845680 218.997742,84.220108 
	C218.929550,71.673225 218.879196,59.126255 218.963577,45.734901 
	C218.963577,42.780693 218.963577,39.826485 218.963577,36.684372 
	C212.166336,36.684372 205.738159,36.684372 199.233978,36.684372 
	C199.233978,75.512230 199.233978,114.127312 199.233978,152.609314 
	C202.633286,152.609314 205.615494,152.609314 209.569443,152.790924 
	C244.631653,152.790924 279.693878,152.790924 314.825439,152.790924 
	C314.825439,116.870125 314.825439,81.726128 314.968170,45.737381 
M415.163422,110.462402 
	C411.103546,100.651093 413.940918,102.609825 403.759094,102.552330 
	C381.284851,102.425400 358.809387,102.512886 336.334442,102.512886 
	C334.590698,102.512886 332.846924,102.512886 330.840179,102.512886 
	C330.840179,120.806633 330.844452,138.431732 330.838562,156.056824 
	C330.835175,166.231171 328.606476,168.506027 318.669403,168.506760 
	C278.547455,168.509720 238.425507,168.506683 198.303558,168.526886 
	C196.487259,168.527802 194.671066,168.733047 192.145599,168.604858 
	C184.601196,167.676254 182.863693,165.689026 182.831940,158.015274 
	C182.768631,142.721054 182.693359,127.426888 182.812103,111.201767 
	C182.812103,108.422195 182.812103,105.642616 182.812103,102.936783 
	C181.767441,102.725121 181.284164,102.541885 180.800720,102.541489 
	C155.309525,102.520523 129.817841,102.456200 104.328300,102.658806 
	C102.849632,102.670563 100.651611,104.561783 100.032234,106.084343 
	C93.465416,122.226891 87.153572,138.473129 80.766121,154.688690 
	C75.790894,167.319092 70.808060,179.946503 65.687668,192.932663 
	C70.653152,192.932663 75.093536,192.932663 80.515762,193.113449 
	C202.729324,193.113449 324.942902,193.113449 447.982635,193.113449 
	C436.914856,165.214890 426.202209,138.211563 415.163422,110.462402 
z"/>
<path fill="#04CB3A" opacity="1.000000" stroke="none" 
	d="
M422.845825,286.054199 
	C422.895081,297.717804 422.983795,309.381439 422.986908,321.045044 
	C423.001801,377.377350 422.993622,433.709625 422.993622,490.041931 
	C422.993622,492.034088 422.993622,494.026245 422.993622,496.788025 
	C366.345276,496.788025 309.938721,496.788025 253.027588,496.252319 
	C252.541031,467.229492 252.600708,438.742279 252.559341,410.255219 
	C252.539124,396.334930 248.533142,383.680023 239.782364,372.734009 
	C238.554230,371.197754 236.568741,370.266998 234.933838,369.055969 
	C234.933838,369.055969 235.003677,369.007355 235.283249,368.778259 
	C234.758072,368.039154 233.953308,367.529144 233.148544,367.019165 
	C223.624741,352.651337 210.248322,344.380005 193.330078,341.392090 
	C163.221634,336.074707 131.225586,359.997681 128.035736,390.452698 
	C127.586807,394.738831 127.366829,399.068176 127.358269,403.378143 
	C127.300438,432.498138 127.328087,461.618347 127.328087,490.738464 
	C127.328087,492.543427 127.328079,494.348389 127.328079,496.838684 
	C118.296265,496.838684 109.698334,496.838684 100.664307,496.317139 
	C100.228203,426.440979 100.228203,357.086365 100.228203,287.379486 
	C111.777977,287.188416 121.139076,283.261719 128.528915,275.001923 
	C128.727661,274.779755 129.474121,275.047607 130.089951,275.396362 
	C145.347610,290.972382 166.132553,291.372375 181.858459,276.755646 
	C182.737564,275.938568 184.013565,275.548523 185.226776,275.269745 
	C200.265106,290.935852 221.278381,291.409149 236.801178,276.790955 
	C237.686142,275.957550 238.946091,275.522339 240.155762,275.217285 
	C243.537643,278.076752 246.547028,281.055084 250.098465,283.085052 
	C261.791931,289.768829 279.615814,290.088806 294.316895,274.775696 
	C310.520020,291.197693 330.917542,291.669006 347.587646,276.183289 
	C348.267578,275.551697 349.225067,275.218933 350.237457,275.035339 
	C365.823578,291.710297 387.737946,291.446075 404.322815,274.780121 
	C409.637177,280.373779 415.545044,284.347595 422.845825,286.054199 
M278.807800,440.015137 
	C278.910583,451.436188 280.063385,453.046783 288.828247,454.856232 
	C289.507233,461.284882 291.574707,463.434601 297.924896,463.524048 
	C308.220184,463.669037 318.518951,463.569397 328.816254,463.569977 
	C347.750031,463.571045 366.683929,463.607819 385.617523,463.551178 
	C393.373749,463.527985 395.948029,460.956512 396.019958,453.563232 
	C396.066772,448.750092 396.120880,443.936981 397.042267,438.937653 
	C400.200806,438.937653 403.359344,438.937653 406.517914,438.937653 
	C406.530731,438.253021 406.543549,437.568359 406.556396,436.883728 
	C403.096466,436.664703 399.636505,436.445709 396.038055,435.261932 
	C396.031158,412.101410 396.050049,388.940826 396.001740,365.780396 
	C395.987152,358.784698 393.488190,356.345428 386.198547,355.218811 
	C385.433319,348.393127 383.065430,346.153473 376.272644,346.146545 
	C347.279205,346.116943 318.285736,346.128326 289.292267,346.137268 
	C281.333099,346.139709 278.867004,348.607361 278.860260,356.546112 
	C278.837799,383.039917 278.825562,409.533691 277.906067,436.126556 
	C271.035522,436.253632 264.164948,436.380676 257.294403,436.507721 
	C257.306152,437.382111 257.317902,438.256470 257.329620,439.130829 
	C264.465576,439.130829 271.601501,439.130829 278.807800,440.015137 
z"/>
<path fill="#FE6E11" opacity="1.000000" stroke="none" 
	d="
M182.623032,112.132706 
	C182.693359,127.426888 182.768631,142.721054 182.831940,158.015274 
	C182.863693,165.689026 184.601196,167.676254 192.503738,169.137054 
	C193.552383,176.272156 195.606018,178.139023 202.559860,178.142807 
	C245.159348,178.166046 287.758820,178.166092 330.358307,178.145294 
	C338.330750,178.141418 340.825409,175.651794 340.839966,167.750839 
	C340.870605,151.110474 340.849823,134.470001 340.850189,117.829582 
	C340.850220,116.068176 340.850189,114.306770 340.850189,112.155991 
	C343.320587,112.155991 345.118866,112.155991 346.917145,112.155991 
	C368.050476,112.155983 389.183868,112.177986 410.317017,112.114929 
	C412.042084,112.109787 413.765411,111.524147 415.489563,111.208237 
	C426.202209,138.211563 436.914856,165.214890 447.982635,193.113449 
	C324.942902,193.113449 202.729324,193.113449 80.145416,192.654144 
	C89.835594,166.740723 99.960289,141.311554 109.873734,115.800285 
	C111.083961,112.685860 112.778114,112.084961 115.783501,112.098976 
	C138.062912,112.202934 160.343094,112.141899 182.623032,112.132706 
z"/>
<path fill="#FD6D0F" opacity="1.000000" stroke="none" 
	d="
M216.964081,372.779968 
	C224.347305,379.841888 226.554382,389.098175 226.643188,398.645508 
	C226.945129,431.100525 226.758591,463.560059 226.758591,496.798798 
	C202.354156,496.798798 178.128601,496.798798 153.429993,496.269257 
	C152.970673,466.793915 152.946548,437.847992 153.009827,408.902313 
	C153.062576,384.779175 171.948654,366.095764 196.062820,367.123566 
	C202.811905,367.411194 209.451401,370.270264 216.141174,371.949768 
	C216.141174,371.949768 216.035110,371.962250 216.042297,372.178345 
	C216.354355,372.522980 216.659225,372.651459 216.964081,372.779968 
M202.151581,441.019073 
	C202.241425,441.673767 202.272873,442.342865 202.430176,442.980927 
	C203.831772,448.665680 206.330673,450.716980 211.320602,450.139252 
	C216.316391,449.560822 217.703720,445.945496 217.974121,441.684845 
	C218.172958,438.551941 218.106781,435.394806 218.016602,432.252563 
	C217.827805,425.674622 215.258438,423.303467 208.217438,422.385071 
	C207.729721,416.157013 205.028854,413.066040 200.160797,413.164764 
	C195.382965,413.261597 192.708405,416.529510 192.423706,422.768707 
	C192.295654,425.575073 192.063431,428.418549 192.358170,431.194244 
	C193.129776,438.460541 194.791580,439.900146 202.151581,441.019073 
z"/>
<path fill="#03CA39" opacity="1.000000" stroke="none" 
	d="
M253.137985,88.075989 
	C255.419281,89.907532 257.700562,91.739067 260.341370,94.126587 
	C261.629883,95.855827 262.582275,97.011444 263.483459,98.205681 
	C266.069824,101.633072 268.890991,104.951317 273.768097,103.447609 
	C279.034882,101.823753 279.724121,97.413422 279.692291,92.599655 
	C279.603210,79.119179 279.661591,65.637741 279.661743,52.156681 
	C279.661774,50.404129 279.661743,48.651577 279.661743,46.582138 
	C291.894714,46.582138 303.360077,46.582138 314.825439,46.582138 
	C314.825439,81.726128 314.825439,116.870125 314.825439,152.790924 
	C279.693878,152.790924 244.631653,152.790924 209.067719,152.256622 
	C208.566010,116.770172 208.566010,81.818008 208.566010,46.579319 
	C212.535645,46.579319 215.678543,46.579319 218.821442,46.579319 
	C218.879196,59.126255 218.929550,71.673225 218.997742,84.220108 
	C219.033752,90.845680 221.232971,93.146027 228.563995,94.286942 
	C228.912613,98.976990 230.535538,102.203690 234.790085,103.536949 
	C238.770584,104.784325 241.480438,102.533310 243.791870,99.737747 
	C246.965851,95.898964 250.027954,91.967651 253.137985,88.075989 
z"/>
<path fill="#FFFEFD" opacity="1.000000" stroke="none" 
	d="
M415.326477,110.835320 
	C413.765411,111.524147 412.042084,112.109787 410.317017,112.114929 
	C389.183868,112.177986 368.050476,112.155983 346.917145,112.155991 
	C345.118866,112.155991 343.320587,112.155991 340.850189,112.155991 
	C340.850189,114.306770 340.850220,116.068176 340.850189,117.829582 
	C340.849823,134.470001 340.870605,151.110474 340.839966,167.750839 
	C340.825409,175.651794 338.330750,178.141418 330.358307,178.145294 
	C287.758820,178.166092 245.159348,178.166046 202.559860,178.142807 
	C195.606018,178.139023 193.552383,176.272156 192.858337,169.256195 
	C194.671066,168.733047 196.487259,168.527802 198.303558,168.526886 
	C238.425507,168.506683 278.547455,168.509720 318.669403,168.506760 
	C328.606476,168.506027 330.835175,166.231171 330.838562,156.056824 
	C330.844452,138.431732 330.840179,120.806633 330.840179,102.512886 
	C332.846924,102.512886 334.590698,102.512886 336.334442,102.512886 
	C358.809387,102.512886 381.284851,102.425400 403.759094,102.552330 
	C413.940918,102.609825 411.103546,100.651093 415.326477,110.835320 
z"/>
<path fill="#F3F3F3" opacity="1.000000" stroke="none" 
	d="
M129.965149,275.086945 
	C129.474121,275.047607 128.727661,274.779755 128.528915,275.001923 
	C121.139076,283.261719 111.777977,287.188416 100.228203,287.379486 
	C100.228203,357.086365 100.228203,426.440979 100.215591,496.238190 
	C97.220131,496.680817 94.237289,496.680817 90.859146,496.680817 
	C90.859146,423.841309 90.859146,351.038513 90.859146,277.703186 
	C101.716248,277.318542 111.330742,273.518036 118.582054,264.979797 
	C122.406044,267.801849 126.076378,270.510498 129.883789,273.832092 
	C130.002304,274.659058 129.983719,274.873016 129.965149,275.086945 
z"/>
<path fill="#FAF9F8" opacity="1.000000" stroke="none" 
	d="
M216.231003,371.600952 
	C209.451401,370.270264 202.811905,367.411194 196.062820,367.123566 
	C171.948654,366.095764 153.062576,384.779175 153.009827,408.902313 
	C152.946548,437.847992 152.970673,466.793915 152.967804,496.182526 
	C149.867035,496.625336 146.755417,496.625336 143.158371,496.625336 
	C143.158371,494.748535 143.158371,493.128357 143.158371,491.508179 
	C143.158371,460.537933 143.143967,429.567657 143.163956,398.597412 
	C143.175278,381.052521 154.008530,365.606110 170.522980,359.488190 
	C186.871170,353.431854 204.748688,358.023987 216.231003,371.600952 
z"/>
<path fill="#FDFCFC" opacity="1.000000" stroke="none" 
	d="
M182.717560,111.667236 
	C160.343094,112.141899 138.062912,112.202934 115.783501,112.098976 
	C112.778114,112.084961 111.083961,112.685860 109.873734,115.800285 
	C99.960289,141.311554 89.835594,166.740723 79.654495,192.563751 
	C75.093536,192.932663 70.653152,192.932663 65.687668,192.932663 
	C70.808060,179.946503 75.790894,167.319092 80.766121,154.688690 
	C87.153572,138.473129 93.465416,122.226891 100.032234,106.084343 
	C100.651611,104.561783 102.849632,102.670563 104.328300,102.658806 
	C129.817841,102.456200 155.309525,102.520523 180.800720,102.541489 
	C181.284164,102.541885 181.767441,102.725121 182.812103,102.936783 
	C182.812103,105.642616 182.812103,108.422195 182.717560,111.667236 
z"/>
<path fill="#F2FAF4" opacity="1.000000" stroke="none" 
	d="
M218.892517,46.157112 
	C215.678543,46.579319 212.535645,46.579319 208.566010,46.579319 
	C208.566010,81.818008 208.566010,116.770172 208.581863,152.165833 
	C205.615494,152.609314 202.633286,152.609314 199.233978,152.609314 
	C199.233978,114.127312 199.233978,75.512230 199.233978,36.684372 
	C205.738159,36.684372 212.166336,36.684372 218.963577,36.684372 
	C218.963577,39.826485 218.963577,42.780693 218.892517,46.157112 
z"/>
<path fill="#F2FBF5" opacity="1.000000" stroke="none" 
	d="
M234.968018,369.414886 
	C236.568741,370.266998 238.554230,371.197754 239.782364,372.734009 
	C248.533142,383.680023 252.539124,396.334930 252.559341,410.255219 
	C252.600708,438.742279 252.541031,467.229492 252.539230,496.160156 
	C249.579376,496.603668 246.603256,496.603668 242.819321,496.603668 
	C242.819321,494.987823 242.819305,493.249542 242.819305,491.511230 
	C242.819305,461.594696 242.813385,431.678192 242.822372,401.761658 
	C242.825775,390.456848 240.718719,379.676208 234.968018,369.414886 
z"/>
<path fill="#FE6D10" opacity="1.000000" stroke="none" 
	d="
M386.164886,219.001709 
	C386.229614,227.318985 386.708954,235.658478 386.264893,243.948486 
	C385.542847,257.428558 373.077179,264.339050 358.289459,258.996643 
	C358.005402,245.269409 358.005402,232.255096 358.005402,219.001709 
	C367.242035,219.001709 376.703461,219.001709 386.164886,219.001709 
z"/>
<path fill="#FE6D10" opacity="1.000000" stroke="none" 
	d="
M331.131866,218.639740 
	C331.218781,227.105804 331.721985,235.592819 331.297028,244.033112 
	C330.625092,257.377472 318.019623,264.319611 303.295898,258.999634 
	C303.012421,245.271515 303.012421,232.255768 303.012421,218.639740 
	C312.244690,218.639740 321.688293,218.639740 331.131866,218.639740 
z"/>
<path fill="#FE6E12" opacity="1.000000" stroke="none" 
	d="
M441.165375,218.997879 
	C441.237915,227.138229 441.672302,235.295059 441.302124,243.415222 
	C440.673950,257.195496 428.259979,264.457092 413.408569,259.272278 
	C413.157837,245.546127 413.157837,232.489120 413.157837,218.997879 
	C422.284882,218.997879 431.725128,218.997879 441.165375,218.997879 
z"/>
<path fill="#FE6D0F" opacity="1.000000" stroke="none" 
	d="
M220.941513,219.000366 
	C221.007278,227.301346 221.341873,235.610947 221.075394,243.901245 
	C220.681458,256.156097 208.707962,263.902191 195.843689,260.523376 
	C195.042358,260.312897 194.263306,260.017670 193.162537,259.057861 
	C192.851181,245.336319 192.851181,232.318756 192.851181,219.000366 
	C202.042587,219.000366 211.492050,219.000366 220.941513,219.000366 
z"/>
<path fill="#FE6D0F" opacity="1.000000" stroke="none" 
	d="
M165.941513,219.000366 
	C165.998001,227.474442 166.372284,235.961243 166.033936,244.419525 
	C165.565750,256.123962 153.793381,263.687592 141.285400,260.689606 
	C140.320206,260.458282 139.394135,260.063660 138.163849,259.026917 
	C137.877823,245.303299 137.877823,232.297653 137.877823,219.000366 
	C147.053925,219.000366 156.497726,219.000366 165.941513,219.000366 
z"/>
<path fill="#FE6D10" opacity="1.000000" stroke="none" 
	d="
M275.940796,218.997498 
	C276.010132,226.437103 276.150452,233.876862 276.133606,241.316269 
	C276.101440,255.517258 264.988922,264.038513 251.060944,260.608765 
	C250.260727,260.411743 249.484146,260.118622 248.377106,259.194611 
	C248.057663,245.486374 248.057663,232.453766 248.057663,218.997498 
	C257.073547,218.997498 266.507141,218.997498 275.940796,218.997498 
z"/>
<path fill="#FE6D0F" opacity="1.000000" stroke="none" 
	d="
M110.832626,218.997910 
	C110.885521,227.133865 111.174210,235.276688 110.938011,243.404236 
	C110.549049,256.788330 98.020821,264.370239 83.350075,259.474365 
	C82.900032,245.711533 82.900032,232.535217 82.900032,218.997910 
	C91.975044,218.997910 101.403839,218.997910 110.832626,218.997910 
z"/>
<path fill="#F0F7F2" opacity="1.000000" stroke="none" 
	d="
M314.896790,46.159760 
	C303.360077,46.582138 291.894714,46.582138 279.661743,46.582138 
	C279.661743,48.651577 279.661774,50.404129 279.661743,52.156681 
	C279.661591,65.637741 279.603210,79.119179 279.692291,92.599655 
	C279.724121,97.413422 279.034882,101.823753 273.768097,103.447609 
	C268.890991,104.951317 266.069824,101.633072 263.483459,98.205681 
	C262.582275,97.011444 261.629883,95.855827 260.574585,94.339401 
	C267.825317,92.881737 269.797516,90.629166 269.806030,83.164696 
	C269.823456,67.860130 269.811279,52.555523 269.811279,36.857719 
	C284.895782,36.857719 299.745941,36.857719 314.968170,36.857719 
	C314.968170,39.823990 314.968170,42.780685 314.896790,46.159760 
z"/>
<path fill="#FBFBFB" opacity="1.000000" stroke="none" 
	d="
M441.314575,218.632599 
	C431.725128,218.997879 422.284882,218.997879 413.157837,218.997879 
	C413.157837,232.489120 413.157837,245.546127 413.104309,259.066650 
	C405.977600,256.517944 402.565735,250.732376 402.304718,243.478714 
	C401.898956,232.203873 402.197479,220.903687 402.197479,209.306732 
	C415.315155,209.306732 428.183472,209.306732 441.463806,209.306732 
	C441.463806,212.351349 441.463806,215.309326 441.314575,218.632599 
z"/>
<path fill="#FBFBFB" opacity="1.000000" stroke="none" 
	d="
M386.314301,218.636169 
	C376.703461,219.001709 367.242035,219.001709 358.005402,219.001709 
	C358.005402,232.255096 358.005402,245.269409 358.040039,258.713287 
	C350.711792,256.446625 347.628784,250.463058 347.335571,243.333298 
	C346.873199,232.089645 347.212585,220.813004 347.212585,209.275146 
	C360.357727,209.275146 373.210541,209.275146 386.463715,209.275146 
	C386.463715,212.362671 386.463715,215.316666 386.314301,218.636169 
z"/>
<path fill="#FEFEFD" opacity="1.000000" stroke="none" 
	d="
M110.908920,218.542114 
	C101.403839,218.997910 91.975044,218.997910 82.900032,218.997910 
	C82.900032,232.535217 82.900032,245.711533 82.974190,259.282898 
	C75.672211,256.561554 72.077866,250.803772 71.958046,242.991714 
	C71.787560,231.876343 71.914719,220.756409 71.914719,209.320587 
	C84.809105,209.320587 97.660400,209.320587 110.985214,209.320587 
	C110.985214,212.221252 110.985214,215.153793 110.908920,218.542114 
z"/>
<path fill="#FEFDFD" opacity="1.000000" stroke="none" 
	d="
M221.041336,218.546783 
	C211.492050,219.000366 202.042587,219.000366 192.851181,219.000366 
	C192.851181,232.318756 192.851181,245.336319 192.891998,258.783691 
	C185.394547,256.400330 182.367477,250.336411 182.143509,242.929688 
	C181.808090,231.837021 182.056305,220.726700 182.056305,209.313080 
	C195.006531,209.313080 207.843658,209.313080 221.141159,209.313080 
	C221.141159,212.237228 221.141159,215.165222 221.041336,218.546783 
z"/>
<path fill="#FEFEFD" opacity="1.000000" stroke="none" 
	d="
M276.040436,218.544113 
	C266.507141,218.997498 257.073547,218.997498 248.057663,218.997498 
	C248.057663,232.453766 248.057663,245.486374 248.086823,258.969757 
	C240.345917,256.276428 237.183578,250.051483 237.049744,242.142212 
	C236.866867,231.335098 237.004074,220.522583 237.004074,209.357574 
	C249.939621,209.357574 262.799072,209.357574 276.140106,209.357574 
	C276.140106,212.225647 276.140106,215.158188 276.040436,218.544113 
z"/>
<path fill="#FEFDFD" opacity="1.000000" stroke="none" 
	d="
M166.041336,218.546783 
	C156.497726,219.000366 147.053925,219.000366 137.877823,219.000366 
	C137.877823,232.297653 137.877823,245.303299 137.907578,258.736755 
	C130.394211,256.358032 127.380630,250.311234 127.171089,242.889038 
	C126.858116,231.803192 127.089836,220.701965 127.089836,209.304810 
	C140.019073,209.304810 152.851761,209.304810 166.141159,209.304810 
	C166.141159,212.239166 166.141159,215.166183 166.041336,218.546783 
z"/>
<path fill="#FBFBFB" opacity="1.000000" stroke="none" 
	d="
M331.088684,218.213165 
	C321.688293,218.639740 312.244690,218.639740 303.012421,218.639740 
	C303.012421,232.255768 303.012421,245.271515 303.046448,258.716980 
	C295.943085,256.513184 292.753571,250.826736 292.509674,243.781250 
	C292.114471,232.365860 292.403229,220.926804 292.403229,209.248535 
	C305.258606,209.248535 317.963531,209.248535 331.045502,209.248535 
	C331.045502,212.211258 331.045502,214.998917 331.088684,218.213165 
z"/>
<path fill="#F9FBFA" opacity="1.000000" stroke="none" 
	d="
M130.089951,275.396362 
	C129.983719,274.873016 130.002304,274.659058 130.045593,274.123901 
	C148.968521,280.510040 159.978500,278.313873 173.650284,265.108215 
	C177.582596,267.984009 181.513657,270.861572 185.610321,274.137756 
	C185.598038,274.750031 185.374359,274.891174 185.104858,274.959717 
	C184.013565,275.548523 182.737564,275.938568 181.858459,276.755646 
	C166.132553,291.372375 145.347610,290.972382 130.089951,275.396362 
z"/>
<path fill="#F8FBF9" opacity="1.000000" stroke="none" 
	d="
M350.053223,274.746948 
	C349.225067,275.218933 348.267578,275.551697 347.587646,276.183289 
	C330.917542,291.669006 310.520020,291.197693 294.315918,274.511871 
	C293.993561,273.746613 293.990479,273.394897 293.987366,273.043152 
	C310.958588,281.058441 326.063843,278.522125 338.926514,265.096466 
	C342.646301,267.856628 346.190857,270.486816 349.907959,273.655182 
	C350.071411,274.377899 350.062317,274.562408 350.053223,274.746948 
z"/>
<path fill="#F9FBFA" opacity="1.000000" stroke="none" 
	d="
M293.762756,272.794434 
	C293.990479,273.394897 293.993561,273.746613 293.997589,274.362183 
	C279.615814,290.088806 261.791931,289.768829 250.098465,283.085052 
	C246.547028,281.055084 243.537643,278.076752 240.174377,274.896759 
	C240.089478,274.047699 240.110199,273.834656 240.130936,273.621582 
	C256.703156,280.862335 271.353790,278.208466 284.029144,264.985870 
	C287.213043,267.517120 290.375580,270.031403 293.762756,272.794434 
z"/>
<path fill="#F8FBF9" opacity="1.000000" stroke="none" 
	d="
M239.927963,273.366028 
	C240.110199,273.834656 240.089478,274.047699 240.050140,274.581238 
	C238.946091,275.522339 237.686142,275.957550 236.801178,276.790955 
	C221.278381,291.409149 200.265106,290.935852 185.226776,275.269745 
	C185.374359,274.891174 185.598038,274.750031 185.876434,274.362213 
	C203.924347,280.504395 214.537247,278.255188 229.074600,265.143494 
	C232.644501,267.813934 236.184753,270.462219 239.927963,273.366028 
z"/>
<path fill="#FAFCFB" opacity="1.000000" stroke="none" 
	d="
M350.237457,275.035339 
	C350.062317,274.562408 350.071411,274.377899 350.105774,273.917480 
	C366.903839,280.912048 381.709717,278.159119 394.283234,265.047577 
	C397.436584,267.538544 400.529358,269.981689 403.810272,272.982056 
	C403.993591,273.918854 403.988770,274.298401 403.983978,274.677948 
	C387.737946,291.446075 365.823578,291.710297 350.237457,275.035339 
z"/>
<path fill="#F8FBF9" opacity="1.000000" stroke="none" 
	d="
M253.014984,87.749008 
	C250.027954,91.967651 246.965851,95.898964 243.791870,99.737747 
	C241.480438,102.533310 238.770584,104.784325 234.790085,103.536949 
	C230.535538,102.203690 228.912613,98.976990 228.949753,94.310150 
	C231.627029,91.350449 234.479370,88.931839 236.997330,86.204506 
	C239.548523,83.441193 241.769135,80.372673 244.471481,77.019768 
	C247.412064,80.652412 250.152023,84.037216 253.014984,87.749008 
z"/>
<path fill="#F4F5F4" opacity="1.000000" stroke="none" 
	d="
M244.827789,55.992535 
	C241.675385,57.949581 238.522980,59.906628 235.372879,61.862236 
	C235.372879,54.043365 235.372879,45.572563 235.372879,36.783401 
	C241.239655,36.783401 247.287964,36.783401 254.004684,36.783401 
	C254.004684,39.618507 254.004684,42.521671 253.503540,45.939144 
	C250.398758,46.453453 247.795120,46.453453 244.827789,46.453453 
	C244.827789,50.051395 244.827789,53.021961 244.827789,55.992535 
z"/>
<path fill="#0CCA40" opacity="1.000000" stroke="none" 
	d="
M245.140198,56.151844 
	C244.827789,53.021961 244.827789,50.051395 244.827789,46.453453 
	C247.795120,46.453453 250.398758,46.453453 253.439392,46.412338 
	C253.876404,51.627357 253.876404,56.883488 253.876404,62.339455 
	C250.915161,60.220310 248.183884,58.265732 245.140198,56.151844 
z"/>
<path fill="#F0F7F2" opacity="1.000000" stroke="none" 
	d="
M404.322815,274.780121 
	C403.988770,274.298401 403.993591,273.918854 404.005402,273.254669 
	C410.111908,274.831451 416.211395,276.692841 423.005280,278.766144 
	C423.005280,280.276581 423.005280,282.714874 422.925568,285.603699 
	C415.545044,284.347595 409.637177,280.373779 404.322815,274.780121 
z"/>
<path fill="#F2FBF5" opacity="1.000000" stroke="none" 
	d="
M233.148315,367.316498 
	C233.953308,367.529144 234.758072,368.039154 235.253357,368.809082 
	C234.345291,368.583923 233.746689,368.098877 233.148315,367.316498 
z"/>
<path fill="#FAF9F8" opacity="1.000000" stroke="none" 
	d="
M216.923584,372.491241 
	C216.659225,372.651459 216.354355,372.522980 216.044067,372.125000 
	C216.320114,371.971222 216.601578,372.086884 216.923584,372.491241 
z"/>
<path fill="#000201" opacity="1.000000" stroke="none" 
	d="
M278.809418,436.027496 
	C278.825562,409.533691 278.837799,383.039917 278.860260,356.546112 
	C278.867004,348.607361 281.333099,346.139709 289.292267,346.137268 
	C318.285736,346.128326 347.279205,346.116943 376.272644,346.146545 
	C383.065430,346.153473 385.433319,348.393127 386.183411,356.081848 
	C386.105438,383.293213 386.042603,409.641571 385.544373,435.984650 
	C383.540009,435.868011 381.971069,435.756683 380.020386,435.618256 
	C380.020386,432.688263 380.421814,430.161041 379.914917,427.831421 
	C379.330444,425.145233 377.944183,422.633545 376.533875,420.025391 
	C374.667389,419.435486 373.173096,418.866241 371.407471,418.144409 
	C370.957214,417.886658 370.778259,417.781494 370.644104,417.237976 
	C370.527344,401.859833 370.365814,386.920105 370.332397,371.532776 
	C370.460449,368.181152 370.460449,365.277069 370.460449,362.189850 
	C365.425995,362.189850 360.714752,362.189850 355.768677,362.125671 
	C355.533783,362.061523 355.060181,362.174713 354.827942,361.898621 
	C351.788177,358.676270 349.317688,360.654938 346.360840,362.095642 
	C334.606903,362.047882 323.306641,362.059662 311.673096,361.940125 
	C308.452576,359.810059 305.626343,359.582581 302.444733,362.051086 
	C299.728180,362.002502 297.461517,362.002502 294.914581,362.002502 
	C294.914581,373.957062 294.914581,385.498383 294.659302,397.339752 
	C293.897156,407.375488 293.390320,417.111115 292.664856,426.954163 
	C292.168610,427.240143 291.938171,427.466705 291.557587,427.875854 
	C291.119781,428.222504 290.912140,428.462891 290.552124,428.886078 
	C290.144989,429.277130 289.967560,429.543457 289.618378,430.019287 
	C289.152527,430.699463 288.902985,431.199829 288.416382,431.986206 
	C286.771454,437.804230 282.420410,435.992645 278.809418,436.027496 
z"/>
<path fill="#110B09" opacity="1.000000" stroke="none" 
	d="
M376.906067,420.046051 
	C377.944183,422.633545 379.330444,425.145233 379.914917,427.831421 
	C380.421814,430.161041 380.020386,432.688263 380.020386,435.618256 
	C381.971069,435.756683 383.540009,435.868011 385.865356,436.236694 
	C389.806702,436.404938 392.991638,436.315826 396.176575,436.226715 
	C399.636505,436.445709 403.096466,436.664703 406.556396,436.883728 
	C406.543549,437.568359 406.530731,438.253021 406.517914,438.937653 
	C403.359344,438.937653 400.200806,438.937653 396.152344,438.894409 
	C392.331635,438.851196 389.400879,438.851196 386.549316,438.851196 
	C385.210876,453.726624 385.071350,453.826691 370.201904,453.855103 
	C343.087891,453.906921 315.973938,453.989410 288.859955,454.059082 
	C280.063385,453.046783 278.910583,451.436188 279.228699,439.513824 
	C282.310974,439.112457 284.972321,439.212433 287.731995,439.576965 
	C288.195770,440.239746 288.561310,440.637878 288.964691,441.027649 
	C289.002563,441.019257 288.941956,441.067780 288.918396,441.394928 
	C289.357788,442.109222 289.820740,442.496368 290.616821,443.103638 
	C294.284271,444.640472 302.026672,442.198639 304.665802,439.087219 
	C310.321716,439.089813 315.525787,439.145721 320.812622,439.551270 
	C322.031830,444.224792 324.507660,447.129211 329.287842,446.774811 
	C334.171844,446.412720 336.486694,443.185852 337.257812,438.606964 
	C337.393585,437.800781 337.679932,437.019989 337.922485,436.185364 
	C337.948212,436.143311 337.851959,436.121735 338.011841,436.551453 
	C343.474976,436.671722 348.778229,436.362274 354.040070,436.055359 
	C353.998657,436.057892 354.076263,436.087616 354.279816,436.174042 
	C354.483368,436.260468 354.909790,436.143219 354.944763,436.109253 
	C354.979736,436.075256 354.882385,436.081055 355.029480,436.516388 
	C362.787842,436.723175 370.399078,436.494629 378.271301,435.939392 
	C378.002533,430.772858 377.472778,425.933014 376.979126,420.829773 
	C376.978821,420.392944 376.942444,420.219482 376.906067,420.046051 
z"/>
<path fill="#F5FCF7" opacity="1.000000" stroke="none" 
	d="
M288.844116,454.457642 
	C315.973938,453.989410 343.087891,453.906921 370.201904,453.855103 
	C385.071350,453.826691 385.210876,453.726624 386.549316,438.851196 
	C389.400879,438.851196 392.331635,438.851196 395.717072,438.987549 
	C396.120880,443.936981 396.066772,448.750092 396.019958,453.563232 
	C395.948029,460.956512 393.373749,463.527985 385.617523,463.551178 
	C366.683929,463.607819 347.750031,463.571045 328.816254,463.569977 
	C318.518951,463.569397 308.220184,463.669037 297.924896,463.524048 
	C291.574707,463.434601 289.507233,461.284882 288.844116,454.457642 
z"/>
<path fill="#F7F7F7" opacity="1.000000" stroke="none" 
	d="
M396.107300,435.744324 
	C392.991638,436.315826 389.806702,436.404938 386.300781,436.242004 
	C386.042603,409.641571 386.105438,383.293213 386.262390,356.480469 
	C393.488190,356.345428 395.987152,358.784698 396.001740,365.780396 
	C396.050049,388.940826 396.031158,412.101410 396.107300,435.744324 
z"/>
<path fill="#64462F" opacity="1.000000" stroke="none" 
	d="
M287.633698,439.312378 
	C284.972321,439.212433 282.310974,439.112457 279.193542,439.071655 
	C271.601501,439.130829 264.465576,439.130829 257.329620,439.130829 
	C257.317902,438.256470 257.306152,437.382111 257.294403,436.507721 
	C264.164948,436.380676 271.035522,436.253632 278.357727,436.077026 
	C282.420410,435.992645 286.771454,437.804230 288.567383,432.115570 
	C288.955505,431.958923 289.256256,432.219208 289.186218,432.572388 
	C288.893463,434.313538 288.670715,435.701508 288.352509,437.370544 
	C288.230927,438.046326 288.204865,438.441040 288.043518,438.956055 
	C287.908203,439.076324 287.633698,439.312378 287.633698,439.312378 
z"/>
<path fill="#070301" opacity="1.000000" stroke="none" 
	d="
M202.048752,440.282043 
	C194.791580,439.900146 193.129776,438.460541 192.358170,431.194244 
	C192.063431,428.418549 192.295654,425.575073 192.423706,422.768707 
	C192.708405,416.529510 195.382965,413.261597 200.160797,413.164764 
	C205.028854,413.066040 207.729721,416.157013 208.220886,423.239563 
	C208.203018,426.251556 208.202438,428.409515 208.156052,430.566467 
	C208.060349,435.017548 206.819427,438.763062 202.048752,440.282043 
z"/>
<path fill="#FCFAF8" opacity="1.000000" stroke="none" 
	d="
M202.100159,440.650574 
	C206.819427,438.763062 208.060349,435.017548 208.156052,430.566467 
	C208.202438,428.409515 208.203018,426.251556 208.308960,423.655212 
	C215.258438,423.303467 217.827805,425.674622 218.016602,432.252563 
	C218.106781,435.394806 218.172958,438.551941 217.974121,441.684845 
	C217.703720,445.945496 216.316391,449.560822 211.320602,450.139252 
	C206.330673,450.716980 203.831772,448.665680 202.430176,442.980927 
	C202.272873,442.342865 202.241425,441.673767 202.100159,440.650574 
z"/>
<path fill="#84533F" opacity="1.000000" stroke="none" 
	d="
M292.883484,426.846771 
	C293.390320,417.111115 293.897156,407.375488 295.027740,397.205597 
	C296.236572,394.563904 297.002502,392.386230 297.372375,390.143280 
	C298.418488,383.798828 299.302368,377.427673 300.544067,371.225922 
	C301.448730,371.641541 302.059509,371.898254 302.598694,372.589539 
	C301.971191,377.481659 301.415283,381.939240 300.832428,386.613037 
	C306.152679,382.690186 310.881256,379.203644 315.702118,375.649017 
	C315.496552,374.986176 315.207214,374.053131 315.040466,372.856476 
	C315.721222,372.076233 316.279388,371.559631 316.982117,371.246277 
	C317.306335,371.742310 317.552063,371.960754 317.942017,372.479858 
	C319.325348,373.507812 320.604797,374.655090 321.940338,374.724640 
	C326.669830,374.970825 331.432770,375.059692 336.151367,374.740204 
	C337.604645,374.641846 338.956665,373.047668 340.477753,372.058777 
	C340.600433,371.979126 340.884888,371.910889 341.246155,371.976166 
	C342.158081,372.486694 342.708710,372.931976 343.285461,373.687195 
	C342.933411,374.666443 342.555145,375.335785 342.232117,376.345215 
	C346.810791,379.814484 351.334198,382.943634 355.951050,386.350159 
	C356.536499,387.076752 357.028503,387.526031 358.293335,388.680939 
	C357.727295,386.042267 357.390350,384.471588 357.104004,382.505859 
	C357.028687,381.060516 356.902802,380.010254 356.824341,378.607483 
	C356.599274,377.137848 356.326782,376.020721 356.079712,374.453735 
	C356.025970,372.503662 355.946838,371.003418 356.154419,369.619049 
	C356.647278,369.732147 356.853424,369.729340 357.334686,369.908508 
	C357.821716,370.706665 358.033569,371.322876 358.229004,372.341492 
	C360.175537,384.424652 361.922882,396.148224 364.233582,407.759705 
	C364.920959,411.213654 363.907806,416.009003 368.616516,417.658630 
	C365.933136,418.219147 363.636475,418.621521 361.315521,419.028137 
	C360.842102,415.587616 360.681366,412.917847 360.064026,410.358215 
	C359.453857,407.828369 358.807587,405.120422 357.385071,403.029541 
	C356.140991,401.200928 354.778503,400.071198 354.748535,397.335144 
	C354.688751,391.873444 346.342407,386.881165 340.312531,388.079742 
	C335.537689,389.028809 332.641266,394.446625 333.651733,399.883759 
	C332.576874,399.525970 331.813782,399.240051 330.939575,398.792786 
	C330.621460,398.407654 330.381561,398.363800 329.754150,398.365906 
	C328.908264,398.296997 328.416962,398.362183 327.713562,398.418762 
	C327.207733,398.480621 326.987946,398.648163 326.476440,398.917664 
	C325.317017,399.003723 324.523285,399.084961 324.102692,399.127991 
	C324.102692,397.507874 324.399475,396.100861 324.047272,394.881287 
	C322.971466,391.156250 320.912506,388.312836 316.603821,387.967194 
	C311.982147,387.596436 304.606293,390.905640 303.865570,394.937408 
	C303.086212,399.179260 300.029694,402.027802 298.981232,405.709808 
	C297.603729,410.547424 297.161591,415.773254 297.144745,420.834869 
	C297.132996,424.367371 296.490448,426.746674 292.962952,427.588104 
	C292.944183,427.340210 292.883484,426.846771 292.883484,426.846771 
z"/>
<path fill="#FCFAF9" opacity="1.000000" stroke="none" 
	d="
M333.963531,399.955597 
	C332.641266,394.446625 335.537689,389.028809 340.312531,388.079742 
	C346.342407,386.881165 354.688751,391.873444 354.748535,397.335144 
	C354.778503,400.071198 356.140991,401.200928 357.385071,403.029541 
	C358.807587,405.120422 359.453857,407.828369 360.064026,410.358215 
	C360.681366,412.917847 360.842102,415.587616 361.315521,419.028137 
	C363.636475,418.621521 365.933136,418.219147 368.885071,417.703918 
	C369.893341,417.619476 370.246338,417.647919 370.599335,417.676361 
	C370.778259,417.781494 370.957214,417.886658 371.437408,418.492859 
	C371.982239,423.390747 375.290344,420.189911 376.943054,421.093140 
	C377.472778,425.933014 378.002533,430.772858 377.815430,435.849213 
	C369.693176,436.084137 362.287781,436.082611 354.882385,436.081055 
	C354.882385,436.081055 354.979736,436.075256 354.984711,435.816162 
	C354.594940,435.105225 354.200195,434.653351 353.805450,434.201477 
	C353.660614,434.313843 353.515808,434.426208 353.370972,434.538574 
	C353.606079,435.054932 353.841156,435.571259 354.076233,436.087616 
	C354.076263,436.087616 353.998657,436.057892 353.567230,436.060150 
	C348.041199,436.082184 342.946564,436.101959 337.851959,436.121735 
	C337.851959,436.121735 337.948212,436.143311 337.975037,435.786926 
	C337.624695,433.896729 337.247498,432.362885 336.895142,430.483887 
	C339.592804,426.812073 342.265625,423.485443 344.938446,420.158813 
	C344.709320,419.705719 344.480225,419.252655 344.251099,418.799561 
	C337.238434,423.039001 334.182373,416.982361 330.158081,414.507202 
	C332.301697,411.846191 334.276001,409.395386 336.468689,406.710938 
	C336.466827,404.995392 336.246582,403.513489 335.996277,402.022583 
	C335.966217,402.013611 335.974091,401.951355 335.950439,401.639954 
	C335.303955,400.909210 334.681122,400.489838 334.033417,400.042725 
	C334.008575,400.014954 333.963531,399.955597 333.963531,399.955597 
M363.670166,434.170441 
	C365.446320,433.911926 367.435211,434.055115 368.929138,433.263824 
	C370.059418,432.665070 371.481262,430.101257 371.181641,429.742859 
	C369.682739,427.950256 367.815857,426.263885 365.729614,425.279083 
	C365.049347,424.957977 362.856293,426.606995 362.167633,427.817291 
	C361.030579,429.815399 359.437592,432.328125 363.670166,434.170441 
M345.742065,395.058167 
	C344.117615,395.319611 342.493164,395.581024 340.868713,395.842468 
	C341.242737,397.569733 341.107849,399.807739 342.159149,400.855286 
	C342.936737,401.630005 345.758209,401.468719 346.783569,400.635162 
	C348.622253,399.140320 349.293762,396.856873 345.742065,395.058167 
z"/>
<path fill="#EC6813" opacity="1.000000" stroke="none" 
	d="
M370.644104,417.237976 
	C370.246338,417.647919 369.893341,417.619476 369.271790,417.545776 
	C363.907806,416.009003 364.920959,411.213654 364.233582,407.759705 
	C361.922882,396.148224 360.175537,384.424652 358.669373,372.357666 
	C362.818878,371.974396 366.511597,371.977386 370.204315,371.980408 
	C370.365814,386.920105 370.527344,401.859833 370.644104,417.237976 
z"/>
<path fill="#FEFEFD" opacity="1.000000" stroke="none" 
	d="
M340.884888,371.910889 
	C340.884888,371.910889 340.600433,371.979126 339.975494,372.002808 
	C332.188324,372.052612 325.026093,372.078766 317.863861,372.104889 
	C317.552063,371.960754 317.306335,371.742310 316.908447,370.912537 
	C315.128937,367.607513 313.567657,364.839478 312.006348,362.071411 
	C323.306641,362.059662 334.606903,362.047882 346.220673,362.385010 
	C344.651062,365.792908 342.767975,368.851898 340.884888,371.910889 
z"/>
<path fill="#FDFBFA" opacity="1.000000" stroke="none" 
	d="
M300.250183,371.067017 
	C299.302368,377.427673 298.418488,383.798828 297.372375,390.143280 
	C297.002502,392.386230 296.236572,394.563904 295.283020,396.905518 
	C294.914581,385.498383 294.914581,373.957062 294.914581,362.002502 
	C297.461517,362.002502 299.728180,362.002502 302.420227,362.408142 
	C301.980438,365.564850 301.115295,368.315918 300.250183,371.067017 
z"/>
<path fill="#FEFDFD" opacity="1.000000" stroke="none" 
	d="
M370.332397,371.532806 
	C366.511597,371.977386 362.818878,371.974396 358.685791,371.955231 
	C358.033569,371.322876 357.821716,370.706665 357.468872,369.649261 
	C356.888794,368.475769 356.449738,367.743469 356.005920,367.006226 
	C356.001190,367.001221 355.989807,366.989441 356.118805,366.697876 
	C356.166382,365.000854 356.084961,363.595337 356.003540,362.189850 
	C360.714752,362.189850 365.425995,362.189850 370.460449,362.189850 
	C370.460449,365.277069 370.460449,368.181152 370.332397,371.532806 
z"/>
<path fill="#8B5E4F" opacity="1.000000" stroke="none" 
	d="
M300.544067,371.225922 
	C301.115295,368.315918 301.980438,365.564850 302.870117,362.456726 
	C305.626343,359.582581 308.452576,359.810059 311.673096,361.940125 
	C313.567657,364.839478 315.128937,367.607513 316.763916,370.709320 
	C316.279388,371.559631 315.721222,372.076233 314.771545,372.643250 
	C312.430023,368.798981 310.634155,364.769653 305.480286,362.274292 
	C304.420563,366.000580 303.545441,369.077789 302.670288,372.154968 
	C302.059509,371.898254 301.448730,371.641541 300.544067,371.225922 
z"/>
<path fill="#8B5E4F" opacity="1.000000" stroke="none" 
	d="
M341.246155,371.976166 
	C342.767975,368.851898 344.651062,365.792908 346.674316,362.444519 
	C349.317688,360.654938 351.788177,358.676270 354.854492,362.206909 
	C355.077484,363.200684 355.041656,363.610077 354.643005,364.022949 
	C352.610901,364.348785 350.290314,364.097900 349.401733,365.107391 
	C347.250702,367.551208 345.767151,370.582520 343.825775,373.372559 
	C343.636963,373.368073 343.259308,373.377258 343.259308,373.377258 
	C342.708710,372.931976 342.158081,372.486694 341.246155,371.976166 
z"/>
<path fill="#FCFAF8" opacity="1.000000" stroke="none" 
	d="
M355.005859,364.019440 
	C355.041656,363.610077 355.077484,363.200684 355.086731,362.483032 
	C355.060181,362.174713 355.533783,362.061523 355.768677,362.125671 
	C356.084961,363.595337 356.166382,365.000854 355.837646,366.674408 
	C355.286957,365.968140 355.146423,364.993774 355.005859,364.019440 
z"/>
<path fill="#84533F" opacity="1.000000" stroke="none" 
	d="
M376.979126,420.829773 
	C375.290344,420.189911 371.982239,423.390747 371.708740,418.645477 
	C373.173096,418.866241 374.667389,419.435486 376.533875,420.025391 
	C376.942444,420.219482 376.978821,420.392944 376.979126,420.829773 
z"/>
<path fill="#64462F" opacity="1.000000" stroke="none" 
	d="
M288.804504,431.829529 
	C288.902985,431.199829 289.152527,430.699463 289.785889,430.168610 
	C290.169708,430.138092 290.508759,430.432068 290.400696,430.690582 
	C289.947174,431.372467 289.601715,431.795837 289.256256,432.219208 
	C289.256256,432.219208 288.955505,431.958923 288.804504,431.829529 
z"/>
<path fill="#64462F" opacity="1.000000" stroke="none" 
	d="
M290.002197,429.988770 
	C289.967560,429.543457 290.144989,429.277130 290.691711,429.026855 
	C291.016479,429.013245 291.295990,429.294495 291.229797,429.523987 
	C291.018738,430.050476 290.800446,430.276672 290.508759,430.432068 
	C290.508759,430.432068 290.169708,430.138092 290.002197,429.988770 
z"/>
<path fill="#64462F" opacity="1.000000" stroke="none" 
	d="
M290.876892,428.872437 
	C290.912140,428.462891 291.119781,428.222504 291.691010,428.017029 
	C292.021759,428.023621 292.286255,428.304260 292.196960,428.535095 
	C291.911377,429.056183 291.640808,429.232361 291.295990,429.294495 
	C291.295990,429.294495 291.016479,429.013245 290.876892,428.872437 
z"/>
<path fill="#64462F" opacity="1.000000" stroke="none" 
	d="
M292.664856,426.954163 
	C292.883484,426.846771 292.944183,427.340210 292.824707,427.758179 
	C292.705231,428.176117 292.286255,428.304260 292.286255,428.304260 
	C292.286255,428.304260 292.021759,428.023621 291.888336,427.882446 
	C291.938171,427.466705 292.168610,427.240143 292.664856,426.954163 
z"/>
<path fill="#FDFBFA" opacity="1.000000" stroke="none" 
	d="
M292.196960,428.535095 
	C292.286255,428.304260 292.705231,428.176117 292.843506,428.006042 
	C296.490448,426.746674 297.132996,424.367371 297.144745,420.834869 
	C297.161591,415.773254 297.603729,410.547424 298.981232,405.709808 
	C300.029694,402.027802 303.086212,399.179260 303.865570,394.937408 
	C304.606293,390.905640 311.982147,387.596436 316.603821,387.967194 
	C320.912506,388.312836 322.971466,391.156250 324.047272,394.881287 
	C324.399475,396.100861 324.102692,397.507874 324.102692,399.127991 
	C324.523285,399.084961 325.317017,399.003723 326.684845,398.911072 
	C327.545868,398.833557 327.768097,398.676117 327.925629,398.427368 
	C328.416962,398.362183 328.908264,398.296997 329.877533,398.499817 
	C330.565491,398.911011 330.797241,398.973114 331.050720,398.954102 
	C331.813782,399.240051 332.576874,399.525970 333.651733,399.883759 
	C333.963531,399.955597 334.008575,400.014954 334.002838,400.315491 
	C333.983215,400.798553 333.969360,400.981110 333.572632,401.153931 
	C332.437897,401.005310 331.686066,400.866364 330.684448,400.508148 
	C328.967560,400.455841 327.500397,400.622772 325.658081,400.903076 
	C323.922852,401.501862 322.562744,401.987213 321.299652,402.437958 
	C320.624115,408.084106 323.108185,411.703613 328.284058,413.701050 
	C319.288574,420.076569 319.288574,420.076569 312.154999,419.213989 
	C315.467743,423.532684 318.284302,427.204468 320.935913,431.150299 
	C320.612030,432.026825 320.453064,432.629272 320.228638,433.625793 
	C318.152130,439.394348 314.359100,436.857513 310.974396,435.687012 
	C309.926666,431.972900 308.869507,428.663483 307.812347,425.354034 
	C307.246185,425.550903 306.680023,425.747772 306.113831,425.944641 
	C307.427734,429.304504 308.741608,432.664337 309.929443,436.336243 
	C308.367554,436.838257 306.880951,436.866669 305.520081,437.294830 
	C304.947784,437.474854 304.641296,438.499695 304.213959,439.140472 
	C302.026672,442.198639 294.284271,444.640472 290.567627,442.806152 
	C289.770874,441.881653 289.356415,441.474701 288.941956,441.067780 
	C288.941956,441.067780 289.002563,441.019257 288.997498,440.719727 
	C288.969971,440.009613 288.947540,439.599030 288.948120,438.908997 
	C288.796722,438.116211 288.622345,437.602875 288.447998,437.089508 
	C288.670715,435.701508 288.893463,434.313538 289.186218,432.572388 
	C289.601715,431.795837 289.947174,431.372467 290.400696,430.690582 
	C290.800446,430.276672 291.018738,430.050476 291.229797,429.523987 
	C291.640808,429.232361 291.911377,429.056183 292.196960,428.535095 
M315.936340,394.891510 
	C315.936340,394.891510 315.692352,394.583405 315.033905,394.500519 
	C313.291748,395.150024 311.254242,395.466339 309.956268,396.616943 
	C309.453796,397.062317 310.198029,399.890747 311.161255,400.725891 
	C312.044922,401.492065 315.100922,401.473633 315.269745,401.043427 
	C315.975464,399.245300 315.954468,397.161926 315.936340,394.891510 
M301.396271,425.928619 
	C302.451965,425.772369 303.507690,425.616089 304.563385,425.459839 
	C304.443573,425.049805 304.323792,424.639740 304.203979,424.229706 
	C303.101562,424.686859 301.999115,425.143982 301.396271,425.928619 
z"/>
<path fill="#E6817D" opacity="1.000000" stroke="none" 
	d="
M320.294067,433.231750 
	C320.453064,432.629272 320.612030,432.026825 321.201599,430.967834 
	C323.118622,423.890167 329.438904,428.771240 332.516876,425.937042 
	C333.968018,427.567719 335.419159,429.198395 336.870300,430.829041 
	C337.247498,432.362885 337.624695,433.896729 337.949310,435.828979 
	C337.679932,437.019989 337.393585,437.800781 337.257812,438.606964 
	C336.486694,443.185852 334.171844,446.412720 329.287842,446.774811 
	C324.507660,447.129211 322.031830,444.224792 320.897156,439.163971 
	C320.697327,436.695282 320.495697,434.963501 320.294067,433.231750 
z"/>
<path fill="#7E4034" opacity="1.000000" stroke="none" 
	d="
M320.228638,433.625793 
	C320.495697,434.963501 320.697327,436.695282 320.814392,438.814331 
	C315.525787,439.145721 310.321716,439.089813 304.665802,439.087219 
	C304.641296,438.499695 304.947784,437.474854 305.520081,437.294830 
	C306.880951,436.866669 308.367554,436.838257 310.159668,436.314728 
	C310.515930,435.981140 310.964966,436.091705 310.964966,436.091705 
	C314.359100,436.857513 318.152130,439.394348 320.228638,433.625793 
z"/>
<path fill="#E6817D" opacity="1.000000" stroke="none" 
	d="
M355.029480,436.516388 
	C362.287781,436.082611 369.693176,436.084137 377.554443,436.175903 
	C370.399078,436.494629 362.787842,436.723175 355.029480,436.516388 
z"/>
<path fill="#E6817D" opacity="1.000000" stroke="none" 
	d="
M338.011841,436.551453 
	C342.946564,436.101959 348.041199,436.082184 353.608643,436.057617 
	C348.778229,436.362274 343.474976,436.671722 338.011841,436.551453 
z"/>
<path fill="#E6817D" opacity="1.000000" stroke="none" 
	d="
M354.279785,436.174042 
	C353.841156,435.571259 353.606079,435.054932 353.370972,434.538574 
	C353.515808,434.426208 353.660614,434.313843 353.805450,434.201477 
	C354.200195,434.653351 354.594940,435.105225 354.949738,435.850159 
	C354.909790,436.143219 354.483368,436.260468 354.279785,436.174042 
z"/>
<path fill="#64462F" opacity="1.000000" stroke="none" 
	d="
M288.925110,439.188416 
	C288.947540,439.599030 288.969971,440.009613 288.959595,440.728149 
	C288.561310,440.637878 288.195770,440.239746 287.731995,439.576965 
	C287.633698,439.312378 287.908203,439.076324 288.232330,439.039429 
	C288.556458,439.002563 288.925110,439.188416 288.925110,439.188416 
z"/>
<path fill="#64462F" opacity="1.000000" stroke="none" 
	d="
M288.918396,441.394928 
	C289.356415,441.474701 289.770874,441.881653 290.234497,442.586060 
	C289.820740,442.496368 289.357788,442.109222 288.918396,441.394928 
z"/>
<path fill="#FAF7F6" opacity="1.000000" stroke="none" 
	d="
M288.948120,438.908997 
	C288.925110,439.188416 288.556458,439.002563 288.367615,438.919189 
	C288.204865,438.441040 288.230927,438.046326 288.352478,437.370544 
	C288.622345,437.602875 288.796722,438.116211 288.948120,438.908997 
z"/>
<path fill="#FCFAF8" opacity="1.000000" stroke="none" 
	d="
M302.598694,372.589508 
	C303.545441,369.077789 304.420563,366.000580 305.480286,362.274292 
	C310.634155,364.769653 312.430023,368.798981 314.648956,372.906921 
	C315.207214,374.053131 315.496552,374.986176 315.702118,375.649017 
	C310.881256,379.203644 306.152679,382.690186 300.832428,386.613037 
	C301.415283,381.939240 301.971191,377.481659 302.598694,372.589508 
z"/>
<path fill="#FEFDFD" opacity="1.000000" stroke="none" 
	d="
M354.643005,364.022949 
	C355.146423,364.993774 355.286957,365.968140 355.708649,366.965942 
	C355.989807,366.989441 356.001190,367.001221 355.999817,367.320984 
	C355.954834,368.261536 355.911255,368.882355 355.867676,369.503143 
	C355.946838,371.003418 356.025970,372.503662 356.056366,374.813202 
	C356.264038,376.734985 356.520477,377.847473 356.776917,378.959991 
	C356.902802,380.010254 357.028687,381.060516 357.077576,382.866211 
	C356.619629,384.438721 356.238617,385.255737 355.857635,386.072784 
	C351.334198,382.943634 346.810791,379.814484 342.537262,376.294495 
	C343.196320,375.061493 343.605438,374.219269 344.014587,373.377075 
	C345.767151,370.582520 347.250702,367.551208 349.401733,365.107391 
	C350.290314,364.097900 352.610901,364.348785 354.643005,364.022949 
z"/>
<path fill="#FD6D0F" opacity="1.000000" stroke="none" 
	d="
M317.942017,372.479858 
	C325.026093,372.078766 332.188324,372.052612 339.852814,372.082458 
	C338.956665,373.047668 337.604645,374.641846 336.151367,374.740204 
	C331.432770,375.059692 326.669830,374.970825 321.940338,374.724640 
	C320.604797,374.655090 319.325348,373.507812 317.942017,372.479858 
z"/>
<path fill="#FCFAF8" opacity="1.000000" stroke="none" 
	d="
M355.951050,386.350159 
	C356.238617,385.255737 356.619629,384.438721 357.027008,383.261292 
	C357.390350,384.471588 357.727295,386.042267 358.293335,388.680939 
	C357.028503,387.526031 356.536499,387.076752 355.951050,386.350159 
z"/>
<path fill="#FCFAF8" opacity="1.000000" stroke="none" 
	d="
M356.154388,369.619049 
	C355.911255,368.882355 355.954834,368.261536 356.004517,367.325989 
	C356.449738,367.743469 356.888794,368.475769 357.193726,369.467285 
	C356.853424,369.729340 356.647278,369.732147 356.154388,369.619049 
z"/>
<path fill="#FCFAF8" opacity="1.000000" stroke="none" 
	d="
M343.825775,373.372559 
	C343.605438,374.219269 343.196320,375.061493 342.482025,375.954407 
	C342.555145,375.335785 342.933411,374.666443 343.285461,373.687195 
	C343.259308,373.377258 343.636963,373.368073 343.825775,373.372559 
z"/>
<path fill="#FCFAF8" opacity="1.000000" stroke="none" 
	d="
M356.824341,378.607483 
	C356.520477,377.847473 356.264038,376.734985 356.030945,375.263000 
	C356.326782,376.020721 356.599274,377.137848 356.824341,378.607483 
z"/>
<path fill="#F3F3F3" opacity="1.000000" stroke="none" 
	d="
M327.713562,398.418732 
	C327.768097,398.676117 327.545868,398.833557 327.050537,398.906189 
	C326.987946,398.648163 327.207733,398.480621 327.713562,398.418732 
z"/>
<path fill="#F3F3F3" opacity="1.000000" stroke="none" 
	d="
M330.939575,398.792786 
	C330.797241,398.973114 330.565491,398.911011 330.232117,398.633911 
	C330.381561,398.363800 330.621460,398.407654 330.939575,398.792786 
z"/>
<path fill="#7E4034" opacity="1.000000" stroke="none" 
	d="
M336.895142,430.483887 
	C335.419159,429.198395 333.968018,427.567719 332.516876,425.937042 
	C329.438904,428.771240 323.118622,423.890167 321.366486,430.693787 
	C318.284302,427.204468 315.467743,423.532684 312.154999,419.213989 
	C319.288574,420.076569 319.288574,420.076569 328.284058,413.701050 
	C323.108185,411.703613 320.624115,408.084106 321.299652,402.437958 
	C322.562744,401.987213 323.922852,401.501862 326.065247,400.956177 
	C328.209747,400.839691 329.571991,400.783569 330.934204,400.727417 
	C331.686066,400.866364 332.437897,401.005310 333.745453,401.381683 
	C334.858795,401.729858 335.416443,401.840607 335.974091,401.951355 
	C335.974091,401.951355 335.966217,402.013611 335.995392,402.433716 
	C336.099823,404.217407 336.175079,405.580963 336.250305,406.944550 
	C334.276001,409.395386 332.301697,411.846191 330.158081,414.507202 
	C334.182373,416.982361 337.238434,423.039001 344.251099,418.799561 
	C344.480225,419.252655 344.709320,419.705719 344.938446,420.158813 
	C342.265625,423.485443 339.592804,426.812073 336.895142,430.483887 
z"/>
<path fill="#E6817D" opacity="1.000000" stroke="none" 
	d="
M363.256836,434.098236 
	C359.437592,432.328125 361.030579,429.815399 362.167633,427.817291 
	C362.856293,426.606995 365.049347,424.957977 365.729614,425.279083 
	C367.815857,426.263885 369.682739,427.950256 371.181641,429.742859 
	C371.481262,430.101257 370.059418,432.665070 368.929138,433.263824 
	C367.435211,434.055115 365.446320,433.911926 363.256836,434.098236 
z"/>
<path fill="#7E4034" opacity="1.000000" stroke="none" 
	d="
M346.144287,395.100861 
	C349.293762,396.856873 348.622253,399.140320 346.783569,400.635162 
	C345.758209,401.468719 342.936737,401.630005 342.159149,400.855286 
	C341.107849,399.807739 341.242737,397.569733 340.868713,395.842468 
	C342.493164,395.581024 344.117615,395.319611 346.144287,395.100861 
z"/>
<path fill="#F3F3F3" opacity="1.000000" stroke="none" 
	d="
M336.468689,406.710938 
	C336.175079,405.580963 336.099823,404.217407 336.025452,402.442688 
	C336.246582,403.513489 336.466827,404.995392 336.468689,406.710938 
z"/>
<path fill="#F3F3F3" opacity="1.000000" stroke="none" 
	d="
M335.950439,401.639954 
	C335.416443,401.840607 334.858795,401.729858 334.128296,401.391357 
	C333.969360,400.981110 333.983215,400.798553 334.027679,400.343262 
	C334.681122,400.489838 335.303955,400.909210 335.950439,401.639954 
z"/>
<path fill="#7E4034" opacity="1.000000" stroke="none" 
	d="
M316.199860,395.183105 
	C315.954468,397.161926 315.975464,399.245300 315.269745,401.043427 
	C315.100922,401.473633 312.044922,401.492065 311.161255,400.725891 
	C310.198029,399.890747 309.453796,397.062317 309.956268,396.616943 
	C311.254242,395.466339 313.291748,395.150024 314.986084,394.545410 
	C314.723846,395.323364 314.509369,396.056396 314.294891,396.789429 
	C314.929871,396.253998 315.564880,395.718536 316.199860,395.183105 
z"/>
<path fill="#FAF7F6" opacity="1.000000" stroke="none" 
	d="
M310.974396,435.687012 
	C310.964966,436.091705 310.515930,435.981140 310.285706,436.002686 
	C308.741608,432.664337 307.427734,429.304504 306.113831,425.944641 
	C306.680023,425.747772 307.246185,425.550903 307.812347,425.354034 
	C308.869507,428.663483 309.926666,431.972900 310.974396,435.687012 
z"/>
<path fill="#FAF7F6" opacity="1.000000" stroke="none" 
	d="
M301.146484,425.764862 
	C301.999115,425.143982 303.101562,424.686859 304.203979,424.229706 
	C304.323792,424.639740 304.443573,425.049805 304.563385,425.459839 
	C303.507690,425.616089 302.451965,425.772369 301.146484,425.764862 
z"/>
<path fill="#F3F3F3" opacity="1.000000" stroke="none" 
	d="
M330.684448,400.508179 
	C329.571991,400.783569 328.209747,400.839691 326.440369,400.842773 
	C327.500397,400.622772 328.967560,400.455841 330.684448,400.508179 
z"/>
<path fill="#FDFBFA" opacity="1.000000" stroke="none" 
	d="
M316.068115,395.037292 
	C315.564880,395.718536 314.929871,396.253998 314.294891,396.789429 
	C314.509369,396.056396 314.723846,395.323364 315.315308,394.586853 
	C315.692352,394.583405 315.936340,394.891510 316.068115,395.037292 
z"/>
</svg>